<!--Copyright by Planitar-->
<svg version="1.1" viewBox="2032.0 -3251.2 8693.1 7232.6" class="floor" xmlns="http://www.w3.org/2000/svg" xmlns:xlink="http://www.w3.org/1999/xlink" id="floor2">
<style type="text/css">.wallitem{shape-rendering:geometricPrecision; stroke:none} .room{shape-rendering:geometricPrecision; stroke:none; fill:#E0E0E0; stroke-width:30} .arrows{fill:black; stroke:none} .door-rect{shape-rendering:geometricPrecision; fill:#dfdfdf} .window-rect{shape-rendering:geometricPrecision; fill:#4fb0e2} .wall{shape-rendering:geometricPrecision; fill:black} .ceiling{display:none} .ceiling-line{fill:none; stroke:red; stroke-width:15} .ceiling-beam{shape-rendering:geometricPrecision; fill:red} .halfwall-outline{shape-rendering:geometricPrecision; stroke:black; stroke-width:7; fill:none} .halfwall-fill{shape-rendering:geometricPrecision; stroke:none; fill:#aaa} .dashline{stroke:black; stroke-width:18; stroke-dasharray: 40} .excluded{fill:none} .line{fill:none; stroke:black; stroke-width:15} .premium{display:none} .laundry{fill:#E8DFD1} .utility{fill:#E8DFD1} .bedroom{fill:#FFF1CC} .storage{fill:#E8DFD1} .office{fill:#FFF1CC} .dining{fill:#E8DFD1} .bathroom{fill:#C0E6FF} .kitchen{fill:#E6F2EC} .living{fill:#FFF9E3}  #rooms.ansi .unfinished{fill:none;} #rooms.ansi .room.unfinished{fill:none;}   .excluded{fill:none;} .room.excluded{fill:none;}   #rooms.ansi .void-space:not(.unfinished){fill:black;} #rooms.ansi .void-space .room:not(.unfinished){fill:black;}  #rooms.ansi .room.void-space:not(.unfinished){fill:black;} #rooms.ansi .room .void-space .room:not(.unfinished){fill:black;}  .void-space:not(.excluded){fill:black;} .void-space .room:not(.excluded){fill:black;}  .room.void-space:not(.excluded){fill:black;} .room .void-space .room:not(.excluded){fill:black;} .arrows{visibility: hidden}#room20 .arrows{visibility: visible}#room54 .arrows{visibility: visible}#labels g rect{fill: none}</style>
<g id="rooms" class="ansi">
<g class="room living unfinished" id="room54">
<polygon points="7175.5,3829.1 8826.5,3829.1 8826.5,-438.1 6102.3,-438.1 6102.3,1035.0 7175.5,1035.0 7175.5,1117.6 7175.5,3829.1 "/>
<g class="arrows">
<polygon transform="translate(6102.3 476.9) rotate(-90.00)" points="0.0, 0.0 -45.0, 157.0 0.0, 124.0 45.0, 157.0 "/>
<polygon transform="translate(8826.5 476.9) rotate(-270.00)" points="0.0, 0.0 -45.0, 157.0 0.0, 124.0 45.0, 157.0 "/>
<polygon transform="translate(7911.3 -438.1) rotate(0.00)" points="0.0, 0.0 -45.0, 157.0 0.0, 124.0 45.0, 157.0 "/>
<polygon transform="translate(7911.3 3829.1) rotate(-180.00)" points="0.0, 0.0 -45.0, 157.0 0.0, 124.0 45.0, 157.0 "/>
</g>
</g>
<g class="room stairs" id="room53">
<polygon points="10572.8,-438.1 10572.8,-2743.2 8191.5,-2743.2 8191.5,-1892.3 8188.2,-1892.1 8191.9,-1843.7 9603.0,-1842.2 9601.1,-1408.8 8896.4,-1408.8 8896.6,-441.9 8826.5,-438.1 10572.8,-438.1 "/>
<g class="arrows">
<polygon transform="translate(8896.5 -1006.6) rotate(-90.00)" points="0.0, 0.0 -45.0, 157.0 0.0, 124.0 45.0, 157.0 "/>
<polygon transform="translate(10572.8 -1006.6) rotate(-270.00)" points="0.0, 0.0 -45.0, 157.0 0.0, 124.0 45.0, 157.0 "/>
<polygon transform="translate(10002.2 -2743.2) rotate(0.00)" points="0.0, 0.0 -45.0, 157.0 0.0, 124.0 45.0, 157.0 "/>
<polygon transform="translate(10002.2 -438.1) rotate(-180.00)" points="0.0, 0.0 -45.0, 157.0 0.0, 124.0 45.0, 157.0 "/>
</g>
</g>
<g class="room living" id="room19">
<polygon points="6155.9,-1192.3 6153.1,-1082.4 6102.3,-1083.7 6102.3,-438.1 8826.5,-438.1 8896.6,-441.9 8896.4,-1408.8 8172.9,-1408.8 8174.5,-1776.4 8134.3,-1773.3 8134.3,-1773.5 6805.4,-1773.5 6805.4,-2755.9 3403.6,-2755.9 3403.6,-1498.6 3403.6,-1193.8 3898.9,-1193.8 3898.9,-1193.8 6155.9,-1192.3 "/>
<g class="arrows">
<polygon transform="translate(3403.6 -1975.2) rotate(-90.00)" points="0.0, 0.0 -45.0, 157.0 0.0, 124.0 45.0, 157.0 "/>
<polygon transform="translate(6805.4 -1975.2) rotate(-270.00)" points="0.0, 0.0 -45.0, 157.0 0.0, 124.0 45.0, 157.0 "/>
<polygon transform="translate(6002.1 -2755.9) rotate(0.00)" points="0.0, 0.0 -45.0, 157.0 0.0, 124.0 45.0, 157.0 "/>
<polygon transform="translate(6002.1 -1192.4) rotate(-180.00)" points="0.0, 0.0 -45.0, 157.0 0.0, 124.0 45.0, 157.0 "/>
</g>
</g>
<g class="room no-floor excluded" id="room24">
<polygon points="8223.9,-1459.6 8896.4,-1459.6 9550.5,-1459.6 9551.9,-1791.5 8225.4,-1792.8 8223.9,-1459.6 "/>
<g class="arrows">
<polygon transform="translate(8224.6 -1627.3) rotate(-90.00)" points="0.0, 0.0 -45.0, 157.0 0.0, 124.0 45.0, 157.0 "/>
<polygon transform="translate(9551.2 -1627.3) rotate(-270.00)" points="0.0, 0.0 -45.0, 157.0 0.0, 124.0 45.0, 157.0 "/>
<polygon transform="translate(8912.6 -1792.1) rotate(0.00)" points="0.0, 0.0 -45.0, 157.0 0.0, 124.0 45.0, 157.0 "/>
<polygon transform="translate(8912.6 -1459.6) rotate(-180.00)" points="0.0, 0.0 -45.0, 157.0 0.0, 124.0 45.0, 157.0 "/>
</g>
</g>
<g class="room bathroom" id="room20">
<polygon points="5988.1,-1086.7 5988.0,-1084.4 3994.1,-1085.8 3993.5,1071.6 5988.0,1054.4 5988.0,-438.1 5988.0,-1086.7 "/>
<g class="arrows">
<polygon transform="translate(3993.8 -15.0) rotate(-90.00)" points="0.0, 0.0 -45.0, 157.0 0.0, 124.0 45.0, 157.0 "/>
<polygon transform="translate(5988.1 -15.0) rotate(-270.00)" points="0.0, 0.0 -45.0, 157.0 0.0, 124.0 45.0, 157.0 "/>
<polygon transform="translate(4979.9 -1085.1) rotate(0.00)" points="0.0, 0.0 -45.0, 157.0 0.0, 124.0 45.0, 157.0 "/>
<polygon transform="translate(4979.9 1063.1) rotate(-180.00)" points="0.0, 0.0 -45.0, 157.0 0.0, 124.0 45.0, 157.0 "/>
</g>
</g>
<g class="room living" id="room21">
<polygon points="2184.4,-2755.9 2184.4,-1555.8 3270.2,-1555.8 3270.2,-2755.9 2184.4,-2755.9 "/>
<g class="arrows">
<polygon transform="translate(2184.4 -2154.1) rotate(-90.00)" points="0.0, 0.0 -45.0, 157.0 0.0, 124.0 45.0, 157.0 "/>
<polygon transform="translate(3270.3 -2154.1) rotate(-270.00)" points="0.0, 0.0 -45.0, 157.0 0.0, 124.0 45.0, 157.0 "/>
<polygon transform="translate(2746.9 -2755.9) rotate(0.00)" points="0.0, 0.0 -45.0, 157.0 0.0, 124.0 45.0, 157.0 "/>
<polygon transform="translate(2746.9 -1555.8) rotate(-180.00)" points="0.0, 0.0 -45.0, 157.0 0.0, 124.0 45.0, 157.0 "/>
</g>
</g>
<g class="room laundry unfinished" id="room61">
<polygon points="7175.5,3829.1 7175.5,1117.6 6115.0,1117.6 6115.0,3727.4 7175.5,3727.4 "/>
<g class="arrows">
<polygon transform="translate(6115.0 2422.5) rotate(-90.00)" points="0.0, 0.0 -45.0, 157.0 0.0, 124.0 45.0, 157.0 "/>
<polygon transform="translate(7175.5 2422.5) rotate(-270.00)" points="0.0, 0.0 -45.0, 157.0 0.0, 124.0 45.0, 157.0 "/>
<polygon transform="translate(6645.3 1117.6) rotate(0.00)" points="0.0, 0.0 -45.0, 157.0 0.0, 124.0 45.0, 157.0 "/>
<polygon transform="translate(6645.3 3727.4) rotate(-180.00)" points="0.0, 0.0 -45.0, 157.0 0.0, 124.0 45.0, 157.0 "/>
</g>
</g>
</g>
<g id="cosmeticlines">
<path class="line" d="M8428.6 -2296.6 L8311.2 -2296.7 "/>
<path class="line" d="M8311.2 -2296.7 L8411.3 -2396.6 "/>
<path class="line" d="M8311.2 -2296.7 L8411.1 -2196.6 "/>
<path class="line" d="M8663.6 -2296.3 L8428.6 -2296.6 "/>
<path class="line" d="M8428.2 -1845.7 L8429.1 -2747.4 "/>
<path class="line" d="M8898.5 -2296.1 L8663.6 -2296.3 "/>
<path class="line" d="M8663.1 -1845.5 L8664.1 -2747.2 "/>
<path class="line" d="M9133.5 -2295.9 L8898.5 -2296.1 "/>
<path class="line" d="M8898.1 -1845.3 L8899.0 -2747.0 "/>
<path class="line" d="M9368.4 -2295.6 L9133.5 -2295.9 "/>
<path class="line" d="M9133.0 -1845.0 L9134.0 -2746.7 "/>
<path class="line" d="M10092.3 -2294.9 L9368.4 -2295.6 "/>
<path class="line" d="M9368.0 -1844.8 L9368.9 -2746.5 "/>
<path class="line" d="M10090.9 -923.3 L10092.3 -2294.9 "/>
<path class="line" d="M9602.7 -1625.4 L10574.2 -1624.4 "/>
<path class="line" d="M9367.0 -924.0 L10090.9 -923.3 "/>
<path class="line" d="M8193.2 -1846.0 L9602.9 -1844.5 "/>
<path class="line" d="M8194.2 -2747.7 L8193.2 -1846.0 "/>
<path class="line" d="M9603.9 -2746.2 L8194.2 -2747.7 "/>
<path class="line" d="M9602.9 -1844.5 L9603.9 -2746.2 "/>
<path class="line" d="M9602.9 -1844.5 L9602.5 -1406.4 "/>
<path class="line" d="M10574.5 -1843.5 L9602.9 -1844.5 "/>
<path class="line" d="M10574.0 -1405.3 L10574.5 -1843.5 "/>
<path class="line" d="M9602.5 -1406.4 L10574.0 -1405.3 "/>
<path class="line" d="M9132.1 -924.3 L9367.0 -924.0 "/>
<path class="line" d="M9367.5 -1406.6 L9366.5 -441.4 "/>
<path class="line" d="M9014.6 -924.4 L9132.1 -924.3 "/>
<path class="line" d="M9132.6 -1406.9 L9131.5 -441.7 "/>
<path class="line" d="M9602.5 -1406.4 L8897.6 -1407.1 "/>
<path class="line" d="M9601.4 -441.2 L9602.5 -1406.4 "/>
<path class="line" d="M8896.6 -441.9 L9601.4 -441.2 "/>
<path class="line" d="M8897.6 -1407.1 L8896.6 -441.9 "/>
</g>
<g class="premium" id="objectlines"/>
<g id="walls">
<g>
<path class="halfwall-fill" d="M8896.4 -1459.6 9550.5 -1459.6 9550.4 -1441.4 9601.1 -1408.8 8896.4 -1408.8 8896.4 -1441.4 Z"/>
<path class="halfwall-outline" d="M8896.4 -1459.6 L9550.5 -1459.6 M9601.1 -1408.8 L8896.4 -1408.8 "/>
</g>
<g>
<path class="halfwall-fill" d="M8225.4 -1792.8 8223.9 -1459.6 8191.5 -1441.4 8172.9 -1408.8 8174.5 -1776.4 8193.2 -1826.9 Z"/>
<path class="halfwall-outline" d="M8225.4 -1792.8 L8223.9 -1459.6 M8172.9 -1408.8 L8174.5 -1776.4 "/>
</g>
<g>
<path class="halfwall-fill" d="M9603.0 -1842.2 9601.1 -1408.8 9550.4 -1441.4 9550.5 -1459.6 9551.9 -1791.5 9552.1 -1825.5 Z"/>
<path class="halfwall-outline" d="M9603.0 -1842.2 L9601.1 -1408.8 M9550.5 -1459.6 L9551.9 -1791.5 "/>
</g>
<g>
<path class="halfwall-fill" d="M8191.9 -1843.7 9603.0 -1842.2 9552.1 -1825.5 9551.9 -1791.5 8225.4 -1792.8 8193.2 -1826.9 Z"/>
<path class="halfwall-outline" d="M8191.9 -1843.7 L9603.0 -1842.2 M9551.9 -1791.5 L8225.4 -1792.8 "/>
</g>
<g>
<path class="halfwall-fill" d="M8223.9 -1459.6 8896.4 -1459.6 8896.4 -1441.4 8896.4 -1408.8 8172.9 -1408.8 8191.5 -1441.4 Z"/>
<path class="halfwall-outline" d="M8223.9 -1459.6 L8896.4 -1459.6 M8896.4 -1408.8 L8172.9 -1408.8 "/>
</g>
<path class="wall" d="M6115.0 3727.4 7175.5 3727.4 7175.5 3905.3 7175.5 3981.4 5962.6 3981.4 6019.8 3905.3 ZM6155.9 -1192.3 6153.1 -1082.4 6019.8 -1085.8 5988.1 -1086.7 5988.0 -1084.4 6021.5 -1154.2 ZM8077.2 -2895.6 10725.1 -2895.6 10629.9 -2819.4 10572.8 -2743.2 8191.5 -2743.2 8134.3 -2819.4 ZM10725.1 -285.7 8978.9 -285.7 8896.4 -400.0 8826.5 -438.1 10572.8 -438.1 10629.9 -400.0 ZM3403.6 -1498.6 3403.6 -1193.8 3327.4 -1155.7 3251.2 -1041.4 3251.2 -1403.3 3327.4 -1498.6 ZM3403.6 -1193.8 3898.9 -1193.8 3898.9 -1155.7 3841.7 -1041.4 3251.2 -1041.4 3327.4 -1155.7 ZM3270.2 -2755.9 2184.4 -2755.9 2089.2 -2819.4 2032.0 -2908.3 3327.4 -2908.3 3327.4 -2819.4 ZM2184.4 -2755.9 2184.4 -1555.8 2089.2 -1498.6 2032.0 -1403.3 2032.0 -2908.3 2089.2 -2819.4 ZM6115.0 1117.6 6115.0 3727.4 6019.8 3905.3 5962.6 3981.4 5962.6 1207.0 6019.8 1085.8 ZM3994.1 -1085.8 3993.5 1071.6 3898.3 1104.1 3841.1 1225.3 3841.7 -1041.4 3898.9 -1155.7 ZM10725.1 -2895.6 10725.1 -285.8 10629.9 -400.0 10572.8 -438.1 10572.8 -2743.2 10629.9 -2819.4 ZM6102.3 -1083.7 6102.3 -438.1 6019.8 -438.1 5988.0 -438.1 5988.0 -1086.7 6019.8 -1085.8 ZM6102.3 -438.1 6102.3 1035.0 6019.8 1085.8 5988.0 1054.4 5988.0 -438.1 6019.8 -438.1 ZM8191.5 -1892.3 8188.2 -1892.1 8193.2 -1826.9 8174.5 -1776.4 8134.3 -1773.3 8134.3 -1822.4 ZM8077.2 -1887.8 8077.2 -2895.6 8134.3 -2819.4 8191.5 -2743.2 8191.5 -1892.3 8134.3 -1822.4 ZM6919.7 -1887.8 8077.2 -1887.8 8134.3 -1822.4 8134.3 -1773.5 6805.4 -1773.5 6870.7 -1822.4 ZM6919.7 -2908.3 6919.7 -1887.8 6870.7 -1822.4 6805.4 -1773.5 6805.4 -2755.9 6870.7 -2819.4 ZM7175.5 1117.6 6115.0 1117.6 6019.8 1085.8 6102.3 1035.0 7175.5 1035.0 7175.5 1085.8 ZM8193.2 -1826.9 8196.9 -1778.1 8174.5 -1776.4 ZM8193.2 -1826.9 8191.9 -1843.7 8193.2 -1826.9 ZM3327.4 -2908.3 6919.7 -2908.3 6870.7 -2819.4 6805.4 -2755.9 3403.6 -2755.9 3327.4 -2819.4 ZM3993.5 1071.6 5988.0 1054.4 6019.8 1085.8 5962.6 1207.0 3841.1 1225.3 3898.3 1104.1 ZM8978.9 -285.8 8978.9 3981.4 8896.4 3905.3 8826.5 3829.1 8826.5 -438.1 8896.4 -400.0 ZM8978.9 3981.4 7175.5 3981.4 7175.5 3905.3 7175.5 3829.1 8826.5 3829.1 8896.4 3905.3 ZM2184.4 -1555.8 3270.2 -1555.8 3327.4 -1498.6 3251.2 -1403.3 2032.0 -1403.3 2089.2 -1498.6 ZM3403.6 -2755.9 3403.6 -1498.6 3327.4 -1498.6 3270.2 -1555.8 3270.2 -2755.9 3327.4 -2819.4 ZM3898.9 -1193.8 6155.9 -1192.3 6021.5 -1154.2 5988.0 -1084.4 3994.1 -1085.8 3898.9 -1155.7 Z"/>
</g>
<symbol viewBox="0 0 80 80" preserveAspectRatio="none" id="file-doors-1-Standard.svg">
<path stroke="#000" stroke-width="2" fill="none" d="M0 40L66.6 1.1"/>
<path stroke="#000" fill="none" d="M66.1 1.1C75 15.5 79.4 30 79.4 40"/>
</symbol>
<symbol viewBox="0 0 118 25" preserveAspectRatio="none" id="file-windows-1-Standard.svg">
<path stroke="#000" fill="none" d="M0 9.1h118 M0 16.9h118"/>
</symbol>
<symbol viewBox="0 0 360 390" preserveAspectRatio="none" id="file-doors-3-Walkway.svg"/>
<g id="structural-objects">
<g class="door" transform="translate(6431.1,  -2832.1) rotate(0.00) scale(-1, -1)" id="door23">
<rect class="door-rect" x="-292.09999999999997" width="584.19999999999993" y="-76.199999999999989" height="152.39999999999998"/>
<use xlink:href="#file-doors-1-Standard.svg" x="-292.09999999999997" width="584.19999999999993" y="-292.09999999999997" height="584.19999999999993"/>
</g>
<g class="door" transform="translate(4610.2,  -2832.1) rotate(0.00) scale(1, 1)" id="door24">
<rect class="door-rect" x="-419.09999999999997" width="838.19999999999993" y="-76.199999999999989" height="152.39999999999998"/>
<use xlink:href="#file-doors-1-Standard.svg" x="-419.09999999999997" width="838.19999999999993" y="-419.09999999999997" height="838.19999999999993"/>
</g>
<g class="door" transform="translate(4556.4,  1142.9) rotate(-0.49) scale(1, -1)" id="door22">
<rect class="door-rect" x="-330.19999999999999" width="660.39999999999998" y="-76.200000000000003" height="152.40000000000001"/>
<use xlink:href="#file-doors-1-Standard.svg" x="-330.19999999999999" width="660.39999999999998" y="-330.19999999999999" height="660.39999999999998"/>
</g>
<g class="door" transform="translate(8902.7,  2403.4) rotate(-270.00) scale(-1, -1)" id="door21">
<rect class="door-rect" x="-406.39999999999998" width="812.79999999999995" y="-76.199999999999989" height="152.39999999999998"/>
<use xlink:href="#file-doors-1-Standard.svg" x="-406.39999999999998" width="812.79999999999995" y="-406.39999999999992" height="812.79999999999984"/>
</g>
<g class="window" transform="translate(7847.0,  3905.2) rotate(-180.00) scale(1, 1)" id="window10">
<rect class="window-rect" x="-457.19999999999999" width="914.39999999999998" y="-76.199999999999989" height="152.39999999999998"/>
<use xlink:href="#file-windows-1-Standard.svg" x="-457.19999999999999" width="914.39999999999998" y="-76.199999999999989" height="152.39999999999998"/>
</g>
<g class="door" transform="translate(2730.3,  -1479.5) rotate(0.00) scale(-1, -1)" id="door47">
<rect class="door-rect" x="-393.69999999999999" width="787.39999999999998" y="-76.200000000000003" height="152.40000000000001"/>
<use xlink:href="#file-doors-1-Standard.svg" x="-393.69999999999999" width="787.39999999999998" y="-393.69999999999999" height="787.39999999999998"/>
</g>
<g class="door" transform="translate(3336.9,  -2000.0) rotate(-270.00) scale(-1, -1)" id="door20">
<rect class="door-rect" x="-431.79999999999995" width="863.59999999999991" y="-66.674999999999997" height="133.34999999999999"/>
<use xlink:href="#file-doors-3-Walkway.svg" x="-431.79999999999995" width="863.59999999999991" y="-467.78333333333325" height="935.56666666666649"/>
</g>
<g class="door" transform="translate(4625.3,  -1139.3) rotate(-359.96) scale(1, -1)" id="door19">
<rect class="door-rect" x="-431.79999999999995" width="863.59999999999991" y="-53.974999999999994" height="107.94999999999999"/>
<use xlink:href="#file-doors-1-Standard.svg" x="-431.79999999999995" width="863.59999999999991" y="-431.79999999999995" height="863.59999999999991"/>
</g>
</g>
<g class="premium" id="nonstructural-objects"/>
<g class="ceiling" id="ceilingLines"/>
<g class="ceiling" id="ceiling-objects"/>
<defs>
<mask id="floor2__wall-holes">
<rect fill="white" x="2032.0" width="8693.1" y="-3251.2" height="7232.6"/>
<path fill="black" d="M6149.0 -2918.3 6713.2 -2918.3 6713.2 -2745.9 6149.0 -2745.9 6149.0 -2918.3 ZM4201.1 -2918.3 5019.3 -2918.3 5019.3 -2745.9 4201.1 -2745.9 4201.1 -2918.3 ZM4235.5 1059.5 4875.9 1054.0 4877.4 1226.4 4237.0 1231.9 4235.5 1059.5 ZM8988.9 2007.0 8988.9 2799.8 8816.5 2799.8 8816.5 2007.0 8988.9 2007.0 ZM8294.2 3991.4 7399.8 3991.4 7399.8 3819.1 8294.2 3819.1 8294.2 3991.4 ZM2346.6 -1565.8 3114.0 -1565.8 3114.0 -1393.3 2346.6 -1393.3 2346.6 -1565.8 ZM3413.6 -2421.8 3413.6 -1578.2 3260.2 -1578.2 3260.2 -2421.8 3413.6 -2421.8 ZM4203.5 -1203.6 5047.1 -1203.0 5047.0 -1075.1 4203.4 -1075.6 4203.5 -1203.6 Z"/>
</mask>
</defs>
<g id="labels"><g><rect x="5341.775000" y="1919.025000" width="2607.000000" height="1007.000000"  transform="rotate(-90.000000, 6645.275000, 2422.525000)" /><text text-anchor="middle" font-size="104.567711" font-family="Arial" transform="translate(6645.275000 2458.078022) rotate(0.000000)">LNDRY</text></g><g><rect x="2186.825000" y="-2689.325000" width="1081.000000" height="1067.000000"  transform="rotate(-0.000000, 2727.325000, -2155.825000)" /><text text-anchor="middle" font-size="104.567711" font-family="Arial" transform="translate(2727.325000 -2120.271978) rotate(-0.000000)">HALL</text></g><g><rect x="4084.537451" y="-827.159879" width="1812.000000" height="1639.000000"  transform="rotate(-90.000000, 4990.537451, -7.659879)" /><text text-anchor="middle" font-size="104.567711" font-family="Arial" transform="translate(4990.537451 -87.654178) rotate(0.000000)">BATH</text><text text-anchor="middle" font-size="104.567711" font-family="Arial" transform="translate(4990.537451 25.801788) rotate(0.000000)">1.99m x 2.15m</text><text text-anchor="middle" font-size="104.567711" font-family="Arial" transform="translate(4990.537451 139.257754) rotate(0.000000)">4.3 m²</text></g><g><rect x="8238.966698" y="-1787.373272" width="1297.000000" height="323.000000"  transform="rotate(-0.000000, 8887.466698, -1625.873272)" /><text text-anchor="middle" font-size="104.567711" font-family="Arial" transform="translate(8887.466698 -1590.320250) rotate(-0.000000)">OPEN</text></g><g><rect x="5183.623437" y="-2511.032812" width="1617.000000" height="1067.000000"  transform="rotate(-0.000000, 5992.123437, -1977.532812)" /><text text-anchor="middle" font-size="104.567711" font-family="Arial" transform="translate(5992.123437 -1941.979791) rotate(-0.000000)">HALL</text></g><g><rect x="6743.256250" y="-71.556250" width="1920.000000" height="1097.000000"  transform="rotate(-0.000000, 7703.256250, 476.943750)" /><text text-anchor="middle" font-size="104.567711" font-family="Arial" transform="translate(7703.256250 396.949451) rotate(-0.000000)">DEN</text><text text-anchor="middle" font-size="104.567711" font-family="Arial" transform="translate(7703.256250 510.405417) rotate(-0.000000)">2.72m x 4.27m</text><text text-anchor="middle" font-size="104.567711" font-family="Arial" transform="translate(7703.256250 623.861384) rotate(-0.000000)">8.6 m²</text></g><g><text text-anchor="middle" alignment-baseline="middle" font-size="104.567711" font-family="Arial" transform="translate(8593.347905 -947.957480) rotate(-0.000000)">DN</text></g></g></svg>
