<!--Copyright by Planitar-->
<svg version="1.1" viewBox="-6051.5 -18600.6 11963.4 19953.1" class="floor" xmlns="http://www.w3.org/2000/svg" xmlns:xlink="http://www.w3.org/1999/xlink" id="floor1">
<style type="text/css">.wallitem{shape-rendering:geometricPrecision; stroke:none} .room{shape-rendering:geometricPrecision; stroke:none; fill:#E0E0E0; stroke-width:30} .arrows{fill:black; stroke:none} .door-rect{shape-rendering:geometricPrecision; fill:#dfdfdf} .window-rect{shape-rendering:geometricPrecision; fill:#4fb0e2} .wall{shape-rendering:geometricPrecision; fill:black} .ceiling{display:none} .ceiling-line{fill:none; stroke:red; stroke-width:15} .ceiling-beam{shape-rendering:geometricPrecision; fill:red} .halfwall-outline{shape-rendering:geometricPrecision; stroke:black; stroke-width:7; fill:none} .halfwall-fill{shape-rendering:geometricPrecision; stroke:none; fill:#aaa} .dashline{stroke:black; stroke-width:18; stroke-dasharray: 40} .excluded{fill:none} .line{fill:none; stroke:black; stroke-width:15} .premium{display:none} .dining{fill:#E8DFD1} .bathroom{fill:#C0E6FF} .kitchen{fill:#E6F2EC} .living{fill:#FFF9E3} .laundry{fill:#E8DFD1} .utility{fill:#E8DFD1} .bedroom{fill:#FFF1CC} .storage{fill:#E8DFD1} .office{fill:#FFF1CC}  #rooms.ansi .unfinished{fill:none;} #rooms.ansi .room.unfinished{fill:none;}   .excluded{fill:none;} .room.excluded{fill:none;}   #rooms.ansi .void-space:not(.unfinished){fill:black;} #rooms.ansi .void-space .room:not(.unfinished){fill:black;}  #rooms.ansi .room.void-space:not(.unfinished){fill:black;} #rooms.ansi .room .void-space .room:not(.unfinished){fill:black;}  .void-space:not(.excluded){fill:black;} .void-space .room:not(.excluded){fill:black;}  .room.void-space:not(.excluded){fill:black;} .room .void-space .room:not(.excluded){fill:black;} .arrows{visibility: hidden}#room59 .arrows{visibility: visible}#room30 .arrows{visibility: visible}#room34 .arrows{visibility: visible}#room35 .arrows{visibility: visible}#room43 .arrows{visibility: visible}#room44 .arrows{visibility: visible}#room45 .arrows{visibility: visible}#room56 .arrows{visibility: visible}#labels g rect{fill: none}</style>
<g id="rooms" class="ansi">
<g class="room bedroom" id="room56">
<polygon points="4180.7,768.3 5403.8,768.3 5403.8,-2724.1 5105.4,-2724.1 1612.9,-2724.1 539.8,-2724.1 539.8,-685.8 539.8,501.6 863.6,501.6 863.6,768.3 1800.4,768.3 4180.7,768.3 "/>
<g class="arrows">
<polygon transform="translate(539.8 -965.6) rotate(-90.00)" points="0.0, 0.0 -54.0, 190.0 0.0, 150.0 54.0, 190.0 "/>
<polygon transform="translate(5403.8 -965.6) rotate(-270.00)" points="0.0, 0.0 -54.0, 190.0 0.0, 150.0 54.0, 190.0 "/>
<polygon transform="translate(2971.8 -2724.1) rotate(0.00)" points="0.0, 0.0 -54.0, 190.0 0.0, 150.0 54.0, 190.0 "/>
<polygon transform="translate(2971.8 768.3) rotate(-180.00)" points="0.0, 0.0 -54.0, 190.0 0.0, 150.0 54.0, 190.0 "/>
</g>
</g>
<g class="room outdoor excluded" id="room55">
<polygon points="4180.7,768.3 1800.4,768.3 2297.4,1117.6 3690.4,1117.6 4180.7,768.3 "/>
<g class="arrows">
<polygon transform="translate(2066.4 955.2) rotate(-90.00)" points="0.0, 0.0 -54.0, 190.0 0.0, 150.0 54.0, 190.0 "/>
<polygon transform="translate(3918.3 955.2) rotate(-270.00)" points="0.0, 0.0 -54.0, 190.0 0.0, 150.0 54.0, 190.0 "/>
<polygon transform="translate(2990.4 768.3) rotate(0.00)" points="0.0, 0.0 -54.0, 190.0 0.0, 150.0 54.0, 190.0 "/>
<polygon transform="translate(2990.4 1117.6) rotate(-180.00)" points="0.0, 0.0 -54.0, 190.0 0.0, 150.0 54.0, 190.0 "/>
</g>
</g>
<g class="room void-space" id="room50">
<polygon stroke="black" points="539.8,768.3 749.3,768.3 749.3,616.0 539.8,616.0 539.8,768.3 " fill="black"/>
<g class="arrows">
<polygon transform="translate(539.8 704.9) rotate(-90.00)" points="0.0, 0.0 -54.0, 190.0 0.0, 150.0 54.0, 190.0 "/>
<polygon transform="translate(749.3 704.9) rotate(-270.00)" points="0.0, 0.0 -54.0, 190.0 0.0, 150.0 54.0, 190.0 "/>
<polygon transform="translate(644.5 616.0) rotate(0.00)" points="0.0, 0.0 -54.0, 190.0 0.0, 150.0 54.0, 190.0 "/>
<polygon transform="translate(644.5 768.3) rotate(-180.00)" points="0.0, 0.0 -54.0, 190.0 0.0, 150.0 54.0, 190.0 "/>
</g>
</g>
<g class="room living" id="room25">
<polygon points="-1155.7,-7296.1 -1155.7,-6324.6 -1155.7,-723.9 387.3,-723.9 387.4,-2813.0 387.3,-3492.5 387.3,-4616.4 387.3,-6705.6 -234.9,-7359.6 -349.3,-7359.6 -349.3,-7296.1 -1155.7,-7296.1 "/>
<g class="arrows">
<polygon transform="translate(-1155.7 -4042.1) rotate(-90.00)" points="0.0, 0.0 -54.0, 190.0 0.0, 150.0 54.0, 190.0 "/>
<polygon transform="translate(387.3 -4042.1) rotate(-270.00)" points="0.0, 0.0 -54.0, 190.0 0.0, 150.0 54.0, 190.0 "/>
<polygon transform="translate(-378.2 -7296.1) rotate(0.00)" points="0.0, 0.0 -54.0, 190.0 0.0, 150.0 54.0, 190.0 "/>
<polygon transform="translate(-378.2 -723.9) rotate(-180.00)" points="0.0, 0.0 -54.0, 190.0 0.0, 150.0 54.0, 190.0 "/>
</g>
</g>
<g class="room stairs" id="room48">
<polygon points="-1155.7,-9042.4 -1155.7,-7296.1 -349.3,-7296.1 -349.3,-7359.6 -349.3,-9042.4 -1155.7,-9042.4 "/>
<g class="arrows">
<polygon transform="translate(-1155.7 -8169.3) rotate(-90.00)" points="0.0, 0.0 -54.0, 190.0 0.0, 150.0 54.0, 190.0 "/>
<polygon transform="translate(-349.3 -8169.3) rotate(-270.00)" points="0.0, 0.0 -54.0, 190.0 0.0, 150.0 54.0, 190.0 "/>
<polygon transform="translate(-752.5 -9042.4) rotate(0.00)" points="0.0, 0.0 -54.0, 190.0 0.0, 150.0 54.0, 190.0 "/>
<polygon transform="translate(-752.5 -7296.1) rotate(-180.00)" points="0.0, 0.0 -54.0, 190.0 0.0, 150.0 54.0, 190.0 "/>
</g>
</g>
<g class="room laundry" id="room47">
<polygon points="1162.0,-10534.6 -228.6,-10534.6 -228.6,-9423.4 1162.0,-9423.4 1162.0,-10534.6 "/>
<g class="arrows">
<polygon transform="translate(-228.6 -9979.0) rotate(-90.00)" points="0.0, 0.0 -54.0, 190.0 0.0, 150.0 54.0, 190.0 "/>
<polygon transform="translate(1162.0 -9979.0) rotate(-270.00)" points="0.0, 0.0 -54.0, 190.0 0.0, 150.0 54.0, 190.0 "/>
<polygon transform="translate(485.8 -10534.6) rotate(0.00)" points="0.0, 0.0 -54.0, 190.0 0.0, 150.0 54.0, 190.0 "/>
<polygon transform="translate(485.8 -9423.4) rotate(-180.00)" points="0.0, 0.0 -54.0, 190.0 0.0, 150.0 54.0, 190.0 "/>
</g>
</g>
<g class="room storage" id="room46">
<polygon points="-342.9,-10534.6 -590.5,-10534.6 -590.5,-10541.0 -1174.8,-10541.0 -1174.8,-9156.7 -342.9,-9156.7 -342.9,-9423.4 -342.9,-10534.6 "/>
<g class="arrows">
<polygon transform="translate(-1174.8 -9847.8) rotate(-90.00)" points="0.0, 0.0 -54.0, 190.0 0.0, 150.0 54.0, 190.0 "/>
<polygon transform="translate(-342.9 -9847.8) rotate(-270.00)" points="0.0, 0.0 -54.0, 190.0 0.0, 150.0 54.0, 190.0 "/>
<polygon transform="translate(-740.2 -10541.0) rotate(0.00)" points="0.0, 0.0 -54.0, 190.0 0.0, 150.0 54.0, 190.0 "/>
<polygon transform="translate(-740.2 -9156.7) rotate(-180.00)" points="0.0, 0.0 -54.0, 190.0 0.0, 150.0 54.0, 190.0 "/>
</g>
</g>
<g class="room kitchen" id="room45">
<polygon points="-247.6,-10814.0 1219.2,-10814.0 2254.3,-10814.0 4013.2,-10814.0 5403.8,-10814.0 5403.8,-15640.0 5276.8,-15640.0 5276.8,-15862.3 5378.4,-15862.3 -2216.1,-15862.3 -2114.5,-15862.3 -2114.5,-15557.5 -2216.1,-15557.5 -2216.1,-12966.7 -2063.8,-12966.7 -2063.8,-12065.0 -590.6,-12065.0 -590.5,-10814.0 -247.6,-10814.0 "/>
<g class="arrows">
<polygon transform="translate(-2216.1 -13318.6) rotate(-90.00)" points="0.0, 0.0 -54.0, 190.0 0.0, 150.0 54.0, 190.0 "/>
<polygon transform="translate(5403.8 -13318.6) rotate(-270.00)" points="0.0, 0.0 -54.0, 190.0 0.0, 150.0 54.0, 190.0 "/>
<polygon transform="translate(1786.8 -15862.3) rotate(0.00)" points="0.0, 0.0 -54.0, 190.0 0.0, 150.0 54.0, 190.0 "/>
<polygon transform="translate(1786.8 -10814.0) rotate(-180.00)" points="0.0, 0.0 -54.0, 190.0 0.0, 150.0 54.0, 190.0 "/>
</g>
</g>
<g class="room living" id="room44">
<polygon points="-1295.4,819.2 -1295.4,-685.8 -1295.4,-6165.8 -5899.1,-6165.8 -5899.1,819.1 -1295.4,819.1 "/>
<g class="arrows">
<polygon transform="translate(-5899.1 -2416.0) rotate(-90.00)" points="0.0, 0.0 -54.0, 190.0 0.0, 150.0 54.0, 190.0 "/>
<polygon transform="translate(-1295.4 -2416.0) rotate(-270.00)" points="0.0, 0.0 -54.0, 190.0 0.0, 150.0 54.0, 190.0 "/>
<polygon transform="translate(-3225.5 -6165.8) rotate(0.00)" points="0.0, 0.0 -54.0, 190.0 0.0, 150.0 54.0, 190.0 "/>
<polygon transform="translate(-3225.5 819.1) rotate(-180.00)" points="0.0, 0.0 -54.0, 190.0 0.0, 150.0 54.0, 190.0 "/>
</g>
</g>
<g class="room living" id="room43">
<polygon points="3956.0,-9283.7 3956.0,-10534.6 2254.3,-10534.6 2254.3,-10737.9 1276.3,-10737.9 1276.3,-9423.4 1162.0,-9423.4 -228.6,-9423.4 -228.6,-9099.5 -234.9,-9099.5 -234.9,-7359.6 387.3,-6705.6 1612.9,-6705.6 3524.3,-6705.6 3524.3,-9283.7 3956.0,-9283.7 "/>
<g class="arrows">
<polygon transform="translate(-234.9 -8190.5) rotate(-90.00)" points="0.0, 0.0 -54.0, 190.0 0.0, 150.0 54.0, 190.0 "/>
<polygon transform="translate(3956.1 -9882.9) rotate(-270.00)" points="0.0, 0.0 -54.0, 190.0 0.0, 150.0 54.0, 190.0 "/>
<polygon transform="translate(2061.6 -10737.9) rotate(0.00)" points="0.0, 0.0 -54.0, 190.0 0.0, 150.0 54.0, 190.0 "/>
<polygon transform="translate(2061.6 -6705.6) rotate(-180.00)" points="0.0, 0.0 -54.0, 190.0 0.0, 150.0 54.0, 190.0 "/>
</g>
</g>
<g class="room storage" id="room36">
<polygon points="-3683.0,-10725.1 -3683.0,-11976.1 -5899.1,-11976.1 -5899.1,-10725.1 -3683.0,-10725.1 "/>
<g class="arrows">
<polygon transform="translate(-5899.1 -11350.6) rotate(-90.00)" points="0.0, 0.0 -54.0, 190.0 0.0, 150.0 54.0, 190.0 "/>
<polygon transform="translate(-3683.0 -11350.6) rotate(-270.00)" points="0.0, 0.0 -54.0, 190.0 0.0, 150.0 54.0, 190.0 "/>
<polygon transform="translate(-4778.4 -11976.1) rotate(0.00)" points="0.0, 0.0 -54.0, 190.0 0.0, 150.0 54.0, 190.0 "/>
<polygon transform="translate(-4778.4 -10725.1) rotate(-180.00)" points="0.0, 0.0 -54.0, 190.0 0.0, 150.0 54.0, 190.0 "/>
</g>
</g>
<g class="room dining" id="room35">
<polygon points="-1289.0,-7296.1 -1289.0,-9099.5 -1289.0,-10572.8 -3625.8,-10572.8 -5899.1,-10572.8 -5899.1,-6464.3 -1289.0,-6464.3 -1289.0,-7296.1 "/>
<g class="arrows">
<polygon transform="translate(-5899.1 -8505.8) rotate(-90.00)" points="0.0, 0.0 -54.0, 190.0 0.0, 150.0 54.0, 190.0 "/>
<polygon transform="translate(-1289.1 -8505.8) rotate(-270.00)" points="0.0, 0.0 -54.0, 190.0 0.0, 150.0 54.0, 190.0 "/>
<polygon transform="translate(-3597.3 -10572.8) rotate(0.00)" points="0.0, 0.0 -54.0, 190.0 0.0, 150.0 54.0, 190.0 "/>
<polygon transform="translate(-3597.3 -6464.3) rotate(-180.00)" points="0.0, 0.0 -54.0, 190.0 0.0, 150.0 54.0, 190.0 "/>
</g>
</g>
<g class="room kitchen" id="room28">
<polygon points="-3568.7,-11976.1 -3568.7,-10725.1 -1238.3,-10725.1 -1238.3,-10718.8 -704.8,-10718.8 -704.8,-10756.9 -704.8,-11976.1 -2235.2,-11976.1 -3568.7,-11976.1 "/>
<g class="arrows">
<polygon transform="translate(-3568.7 -11357.1) rotate(-90.00)" points="0.0, 0.0 -54.0, 190.0 0.0, 150.0 54.0, 190.0 "/>
<polygon transform="translate(-704.8 -11357.1) rotate(-270.00)" points="0.0, 0.0 -54.0, 190.0 0.0, 150.0 54.0, 190.0 "/>
<polygon transform="translate(-2073.6 -11976.1) rotate(0.00)" points="0.0, 0.0 -54.0, 190.0 0.0, 150.0 54.0, 190.0 "/>
<polygon transform="translate(-2073.6 -10725.1) rotate(-180.00)" points="0.0, 0.0 -54.0, 190.0 0.0, 150.0 54.0, 190.0 "/>
</g>
</g>
<g class="room storage" id="room31">
<polygon points="1555.7,-6578.6 514.4,-6578.6 514.4,-4673.6 1555.7,-4673.6 1555.7,-6578.6 "/>
<g class="arrows">
<polygon transform="translate(514.4 -5626.1) rotate(-90.00)" points="0.0, 0.0 -54.0, 190.0 0.0, 150.0 54.0, 190.0 "/>
<polygon transform="translate(1555.7 -5626.1) rotate(-270.00)" points="0.0, 0.0 -54.0, 190.0 0.0, 150.0 54.0, 190.0 "/>
<polygon transform="translate(1035.0 -6578.6) rotate(0.00)" points="0.0, 0.0 -54.0, 190.0 0.0, 150.0 54.0, 190.0 "/>
<polygon transform="translate(1035.0 -4673.6) rotate(-180.00)" points="0.0, 0.0 -54.0, 190.0 0.0, 150.0 54.0, 190.0 "/>
</g>
</g>
<g class="room bedroom" id="room34">
<polygon points="1670.0,-2908.3 5067.3,-2908.3 5067.3,-4381.5 5403.8,-4381.5 5403.8,-6578.6 5187.9,-6578.6 3562.3,-6578.6 1670.0,-6578.6 1670.0,-4616.4 1670.0,-3492.5 1670.0,-2908.3 "/>
<g class="arrows">
<polygon transform="translate(1670.0 -4841.0) rotate(-90.00)" points="0.0, 0.0 -54.0, 190.0 0.0, 150.0 54.0, 190.0 "/>
<polygon transform="translate(5403.8 -4841.0) rotate(-270.00)" points="0.0, 0.0 -54.0, 190.0 0.0, 150.0 54.0, 190.0 "/>
<polygon transform="translate(3414.0 -6578.6) rotate(0.00)" points="0.0, 0.0 -54.0, 190.0 0.0, 150.0 54.0, 190.0 "/>
<polygon transform="translate(3414.0 -2908.3) rotate(-180.00)" points="0.0, 0.0 -54.0, 190.0 0.0, 150.0 54.0, 190.0 "/>
</g>
</g>
<g class="room void-space" id="room41">
<polygon stroke="black" points="5181.6,-2908.3 5403.8,-2908.3 5403.8,-4248.1 5181.6,-4248.1 5181.6,-2908.3 " fill="black"/>
<g class="arrows">
<polygon transform="translate(5181.6 -3578.2) rotate(-90.00)" points="0.0, 0.0 -54.0, 190.0 0.0, 150.0 54.0, 190.0 "/>
<polygon transform="translate(5403.8 -3578.2) rotate(-270.00)" points="0.0, 0.0 -54.0, 190.0 0.0, 150.0 54.0, 190.0 "/>
<polygon transform="translate(5292.7 -4248.1) rotate(0.00)" points="0.0, 0.0 -54.0, 190.0 0.0, 150.0 54.0, 190.0 "/>
<polygon transform="translate(5292.7 -2908.3) rotate(-180.00)" points="0.0, 0.0 -54.0, 190.0 0.0, 150.0 54.0, 190.0 "/>
</g>
</g>
<g class="room bathroom" id="room30">
<polygon points="5403.8,-9150.3 4013.2,-9150.3 3638.5,-9150.3 3638.5,-6705.6 5149.8,-6705.6 5149.8,-7613.6 5403.8,-7613.6 5403.8,-9150.3 "/>
<g class="arrows">
<polygon transform="translate(3638.5 -8267.8) rotate(-90.00)" points="0.0, 0.0 -54.0, 190.0 0.0, 150.0 54.0, 190.0 "/>
<polygon transform="translate(5403.8 -8267.8) rotate(-270.00)" points="0.0, 0.0 -54.0, 190.0 0.0, 150.0 54.0, 190.0 "/>
<polygon transform="translate(4521.0 -9150.3) rotate(0.00)" points="0.0, 0.0 -54.0, 190.0 0.0, 150.0 54.0, 190.0 "/>
<polygon transform="translate(4521.0 -6705.6) rotate(-180.00)" points="0.0, 0.0 -54.0, 190.0 0.0, 150.0 54.0, 190.0 "/>
</g>
</g>
<g class="room void-space" id="room38">
<polygon stroke="black" points="5403.8,-6705.6 5403.8,-7499.4 5245.1,-7499.4 5245.1,-6705.6 5403.8,-6705.6 " fill="black"/>
<g class="arrows">
<polygon transform="translate(5245.1 -7089.8) rotate(-90.00)" points="0.0, 0.0 -54.0, 190.0 0.0, 150.0 54.0, 190.0 "/>
<polygon transform="translate(5403.8 -7089.8) rotate(-270.00)" points="0.0, 0.0 -54.0, 190.0 0.0, 150.0 54.0, 190.0 "/>
<polygon transform="translate(5324.5 -7499.4) rotate(0.00)" points="0.0, 0.0 -54.0, 190.0 0.0, 150.0 54.0, 190.0 "/>
<polygon transform="translate(5324.5 -6705.6) rotate(-180.00)" points="0.0, 0.0 -54.0, 190.0 0.0, 150.0 54.0, 190.0 "/>
</g>
</g>
<g class="room other" id="room29">
<polygon points="400.1,539.8 400.1,-609.6 -1181.1,-609.6 -1181.1,819.1 400.1,819.1 400.1,539.8 "/>
<g class="arrows">
<polygon transform="translate(-1181.1 104.8) rotate(-90.00)" points="0.0, 0.0 -54.0, 190.0 0.0, 150.0 54.0, 190.0 "/>
<polygon transform="translate(400.1 104.8) rotate(-270.00)" points="0.0, 0.0 -54.0, 190.0 0.0, 150.0 54.0, 190.0 "/>
<polygon transform="translate(-381.0 -609.6) rotate(0.00)" points="0.0, 0.0 -54.0, 190.0 0.0, 150.0 54.0, 190.0 "/>
<polygon transform="translate(-381.0 819.1) rotate(-180.00)" points="0.0, 0.0 -54.0, 190.0 0.0, 150.0 54.0, 190.0 "/>
</g>
</g>
<g class="room storage" id="room57">
<polygon points="514.4,-4559.3 514.4,-3549.7 1555.7,-3549.7 1555.7,-4559.3 514.4,-4559.3 "/>
<g class="arrows">
<polygon transform="translate(514.4 -4054.5) rotate(-90.00)" points="0.0, 0.0 -54.0, 190.0 0.0, 150.0 54.0, 190.0 "/>
<polygon transform="translate(1555.7 -4054.5) rotate(-270.00)" points="0.0, 0.0 -54.0, 190.0 0.0, 150.0 54.0, 190.0 "/>
<polygon transform="translate(1035.0 -4559.3) rotate(0.00)" points="0.0, 0.0 -54.0, 190.0 0.0, 150.0 54.0, 190.0 "/>
<polygon transform="translate(1035.0 -3549.7) rotate(-180.00)" points="0.0, 0.0 -54.0, 190.0 0.0, 150.0 54.0, 190.0 "/>
</g>
</g>
<g class="room storage" id="room58">
<polygon points="514.4,-2908.3 1555.7,-2908.3 1555.7,-3435.3 514.4,-3435.3 514.4,-2908.3 "/>
<g class="arrows">
<polygon transform="translate(514.4 -3171.8) rotate(-90.00)" points="0.0, 0.0 -54.0, 190.0 0.0, 150.0 54.0, 190.0 "/>
<polygon transform="translate(1555.7 -3171.8) rotate(-270.00)" points="0.0, 0.0 -54.0, 190.0 0.0, 150.0 54.0, 190.0 "/>
<polygon transform="translate(1035.0 -3435.3) rotate(0.00)" points="0.0, 0.0 -54.0, 190.0 0.0, 150.0 54.0, 190.0 "/>
<polygon transform="translate(1035.0 -2908.3) rotate(-180.00)" points="0.0, 0.0 -54.0, 190.0 0.0, 150.0 54.0, 190.0 "/>
</g>
</g>
<g class="room living" id="room59">
<polygon points="5378.4,-18446.8 -2216.1,-18446.8 -2216.1,-15862.3 5378.4,-15862.3 5378.4,-18446.8 "/>
<g class="arrows">
<polygon transform="translate(-2216.1 -17154.5) rotate(-90.00)" points="0.0, 0.0 -54.0, 190.0 0.0, 150.0 54.0, 190.0 "/>
<polygon transform="translate(5378.4 -17154.5) rotate(-270.00)" points="0.0, 0.0 -54.0, 190.0 0.0, 150.0 54.0, 190.0 "/>
<polygon transform="translate(1581.1 -18446.8) rotate(0.00)" points="0.0, 0.0 -54.0, 190.0 0.0, 150.0 54.0, 190.0 "/>
<polygon transform="translate(1581.1 -15862.3) rotate(-180.00)" points="0.0, 0.0 -54.0, 190.0 0.0, 150.0 54.0, 190.0 "/>
</g>
</g>
<g class="room storage" id="room60">
<polygon points="5403.8,-10699.8 4070.3,-10699.8 4070.3,-9302.8 5403.8,-9302.8 5403.8,-10699.8 "/>
<g class="arrows">
<polygon transform="translate(4070.3 -10001.3) rotate(-90.00)" points="0.0, 0.0 -54.0, 190.0 0.0, 150.0 54.0, 190.0 "/>
<polygon transform="translate(5403.8 -10001.3) rotate(-270.00)" points="0.0, 0.0 -54.0, 190.0 0.0, 150.0 54.0, 190.0 "/>
<polygon transform="translate(4746.6 -10699.8) rotate(0.00)" points="0.0, 0.0 -54.0, 190.0 0.0, 150.0 54.0, 190.0 "/>
<polygon transform="translate(4746.6 -9302.8) rotate(-180.00)" points="0.0, 0.0 -54.0, 190.0 0.0, 150.0 54.0, 190.0 "/>
</g>
</g>
</g>
<g id="cosmeticlines">
<path class="wall" d="M-5327.6 -2797.2 -5956.3 -2797.2 -5956.3 -2863.8 -5956.3 -2930.5 -5441.9 -2930.5 -5384.8 -2863.8 Z"/>
<path class="wall" d="M-5975.3 -4489.4 -5327.6 -4489.4 -5384.8 -4432.3 -5441.9 -4375.2 -5975.3 -4375.2 -5975.3 -4432.3 Z"/>
<path class="wall" d="M-5327.6 -4489.4 -5327.6 -2797.2 -5384.8 -2863.8 -5441.9 -2930.5 -5441.9 -4375.2 -5384.8 -4432.3 Z"/>
<path class="line" d="M-752.5 -8792.9 L-752.5 -8917.7 "/>
<path class="line" d="M-752.5 -8917.7 L-652.5 -8817.7 "/>
<path class="line" d="M-752.5 -8917.7 L-852.5 -8817.7 "/>
<path class="line" d="M-752.5 -8543.5 L-752.5 -8792.9 "/>
<path class="line" d="M-1155.7 -8792.9 L-349.3 -8792.9 "/>
<path class="line" d="M-752.5 -8294.0 L-752.5 -8543.5 "/>
<path class="line" d="M-1155.7 -8543.5 L-349.3 -8543.5 "/>
<path class="line" d="M-752.5 -8044.5 L-752.5 -8294.0 "/>
<path class="line" d="M-1155.7 -8294.0 L-349.3 -8294.0 "/>
<path class="line" d="M-752.5 -7795.1 L-752.5 -8044.5 "/>
<path class="line" d="M-1155.7 -8044.5 L-349.3 -8044.5 "/>
<path class="line" d="M-752.5 -7545.6 L-752.5 -7795.1 "/>
<path class="line" d="M-1155.7 -7795.1 L-349.3 -7795.1 "/>
<path class="line" d="M-752.5 -7420.9 L-752.5 -7545.6 "/>
<path class="line" d="M-1155.7 -7545.6 L-349.3 -7545.6 "/>
<path class="line" d="M-1155.7 -9042.4 L-349.3 -9042.4 "/>
<path class="line" d="M-349.3 -7296.1 L-349.3 -9042.4 "/>
<path class="line" d="M-1155.7 -7296.1 L-349.3 -7296.1 "/>
<path class="line" d="M-1155.7 -7296.1 L-1155.7 -9042.4 "/>
<path class="line" d="M5480.0 -15862.3 L-2235.2 -15862.3 "/>
<path class="line" d="M2901.9 -15862.3 L3018.2 -15746.4 L3100.2 -15678.0 L3185.2 -15616.6 L3272.9 -15562.2 L3362.8 -15514.6 L3454.5 -15473.9 L3547.6 -15439.9 L3641.8 -15412.5 L3736.5 -15391.8 L3831.4 -15377.6 L3926.0 -15369.9 L4020.0 -15368.5 L4112.9 -15373.5 L4204.4 -15384.7 L4294.0 -15402.1 L4381.3 -15425.6 L4465.8 -15455.2 L4547.3 -15490.7 L4625.2 -15532.1 L4699.1 -15579.4 L4768.7 -15632.4 L4833.6 -15691.1 L4893.2 -15755.4 L4972.0 -15862.3 "/>
</g>
<g class="premium" id="objectlines"/>
<g id="walls">
<g>
<path class="halfwall-fill" d="M-234.9 -9099.5 -234.9 -7359.6 -247.6 -7359.6 -349.3 -7359.6 -349.3 -9042.4 -247.6 -9099.5 Z"/>
<path class="halfwall-outline" d="M-234.9 -9099.5 L-234.9 -7359.6 L-349.3 -7359.6 L-349.3 -9042.4 "/>
</g>
<path class="line" d="M1803.4 863.6 L1800.4 768.3 L4180.7 768.3 L4178.3 863.6 "/>
<path class="wall" d="M5556.2 -15862.3 5556.2 -15640.0 5480.0 -15640.0 5276.8 -15640.0 5276.8 -15862.3 5480.0 -15862.3 ZM-342.9 -10534.6 -590.5 -10534.6 -647.7 -10756.9 -590.5 -10814.0 -247.6 -10814.0 -247.6 -10756.9 ZM1162.0 -10534.6 -228.6 -10534.6 -247.6 -10756.9 -247.6 -10814.0 1219.2 -10814.0 1219.2 -10756.9 ZM-2368.5 -15557.5 -2368.5 -15862.3 -2235.2 -15862.3 -2114.5 -15862.3 -2114.5 -15557.5 -2235.2 -15557.5 ZM1824.5 971.5 806.4 971.5 806.4 863.6 863.6 768.3 1800.4 768.3 1803.4 863.6 ZM5556.2 971.5 4158.1 971.5 4178.3 863.6 4180.7 768.3 5403.8 768.3 5480.0 863.6 ZM539.8 768.3 749.3 768.3 806.4 863.6 806.4 971.5 457.2 971.5 457.2 863.6 ZM1670.0 -2908.3 5067.3 -2908.3 5105.4 -2813.0 5105.4 -2724.1 1612.9 -2724.1 1612.9 -2813.0 ZM5181.6 -2908.3 5403.8 -2908.3 5480.0 -2813.0 5403.8 -2724.1 5105.4 -2724.1 5105.4 -2813.0 ZM-590.5 -10541.0 -1174.8 -10541.0 -1238.3 -10668.0 -1238.3 -10718.8 -704.8 -10718.8 -647.7 -10668.0 ZM-2216.1 -15557.5 -2216.1 -12966.7 -2235.2 -12966.7 -2368.5 -12966.7 -2368.5 -15557.5 -2235.2 -15557.5 ZM4070.3 -9302.8 5403.8 -9302.8 5480.0 -9226.5 5403.8 -9150.3 4013.2 -9150.3 4013.2 -9226.5 ZM-6051.5 -12128.5 -3625.8 -12128.5 -3625.8 -12052.3 -3683.0 -11976.1 -5899.1 -11976.1 -5975.3 -12052.3 ZM5556.2 -7556.5 5556.2 -6635.8 5480.0 -6635.8 5403.8 -6705.6 5403.8 -7499.4 5480.0 -7556.5 ZM5556.2 -2813.0 5556.2 971.6 5480.0 863.6 5403.8 768.3 5403.8 -2724.1 5480.0 -2813.0 ZM-2235.2 -11976.1 -3568.7 -11976.1 -3625.8 -12052.3 -3625.8 -12128.5 -2368.5 -12128.5 -2235.2 -12052.3 ZM-6051.5 -10668.0 -6051.5 -12128.5 -5975.3 -12052.3 -5899.1 -11976.1 -5899.1 -10725.1 -5975.3 -10668.0 ZM5556.2 -4343.4 5556.2 -2813.0 5480.0 -2813.0 5403.8 -2908.3 5403.8 -4248.1 5480.0 -4343.4 ZM5556.2 -10756.9 5556.2 -9226.5 5480.0 -9226.5 5403.8 -9302.8 5403.8 -10699.8 5480.0 -10756.9 ZM539.8 616.0 539.8 768.3 457.2 863.6 400.1 819.2 400.1 539.8 457.2 539.8 ZM539.8 -685.8 539.8 501.6 457.2 539.8 400.1 539.8 400.1 -609.6 457.2 -685.8 ZM-1155.7 -7296.1 -1155.7 -6324.6 -1238.3 -6324.6 -1289.0 -6464.3 -1289.0 -7296.1 -1238.3 -7296.1 ZM5403.8 -4248.1 5181.6 -4248.1 5105.4 -4343.4 5067.3 -4381.5 5403.8 -4381.5 5480.0 -4343.4 ZM4013.2 -9150.3 3638.5 -9150.3 3562.3 -9226.5 3524.3 -9283.7 3956.0 -9283.7 4013.2 -9226.5 ZM-1155.7 -9042.4 -1155.7 -7296.1 -1238.3 -7296.1 -1289.0 -7296.1 -1289.0 -9099.5 -1238.3 -9099.5 ZM514.4 -6578.6 514.4 -4673.6 457.2 -4616.4 387.3 -4616.4 387.3 -6705.6 457.2 -6635.8 ZM1555.7 -6578.6 514.4 -6578.6 457.2 -6635.8 387.3 -6705.6 1612.9 -6705.6 1612.9 -6635.8 ZM5245.1 -6705.6 5403.8 -6705.6 5480.0 -6635.8 5403.8 -6578.6 5187.9 -6578.6 5187.9 -6635.8 ZM5187.9 -6578.6 3562.3 -6578.6 3562.3 -6635.8 3638.5 -6705.6 5149.8 -6705.6 5187.9 -6635.8 ZM514.4 -3435.3 514.4 -2908.3 457.2 -2813.0 387.3 -2813.0 387.3 -3492.5 457.2 -3492.5 ZM5403.8 -7499.4 5245.1 -7499.4 5187.9 -7556.5 5149.8 -7613.6 5403.8 -7613.6 5480.0 -7556.5 ZM863.6 501.6 863.6 768.3 806.4 863.6 749.3 768.3 749.3 616.0 806.4 539.8 ZM-228.6 -9423.4 -228.6 -9099.5 -247.6 -9099.5 -342.9 -9156.7 -342.9 -9423.4 -247.6 -9423.4 ZM-590.5 -10534.6 -590.5 -10541.0 -647.7 -10668.0 -704.8 -10718.8 -704.8 -10756.9 -647.7 -10756.9 ZM-590.5 -12065.0 -590.5 -10814.0 -647.7 -10756.9 -704.8 -10756.9 -704.8 -11976.1 -647.7 -12052.3 ZM539.8 501.6 863.6 501.6 806.4 539.8 749.3 616.0 539.8 616.0 457.2 539.8 ZM-1174.8 -9156.7 -342.9 -9156.7 -247.6 -9099.5 -349.3 -9042.4 -1155.7 -9042.4 -1238.3 -9099.5 ZM5181.6 -4248.1 5181.6 -2908.3 5105.4 -2813.0 5067.3 -2908.3 5067.3 -4381.5 5105.4 -4343.4 ZM-247.6 -9099.5 -234.9 -9099.5 -234.9 -9042.4 -349.3 -9042.4 ZM1276.3 -10737.9 1276.3 -9423.4 1219.2 -9423.4 1162.0 -9423.4 1162.0 -10534.6 1219.2 -10756.9 ZM-1174.8 -10541.0 -1174.8 -9156.7 -1238.3 -9099.5 -1289.0 -9099.5 -1289.0 -10572.8 -1238.3 -10668.0 ZM-1181.1 -609.6 -1181.1 819.1 -1238.3 863.6 -1295.4 819.2 -1295.4 -685.8 -1238.3 -685.8 ZM4070.3 -10699.8 4070.3 -9302.8 4013.2 -9226.5 3956.0 -9283.7 3956.0 -10534.6 4013.2 -10756.9 ZM-3568.7 -11976.1 -3568.7 -10725.1 -3625.8 -10668.0 -3683.0 -10725.1 -3683.0 -11976.1 -3625.8 -12052.3 ZM1555.7 -4559.3 514.4 -4559.3 457.2 -4616.4 514.4 -4673.6 1555.7 -4673.6 1612.9 -4616.4 ZM1670.0 -4616.4 1670.0 -3492.5 1612.9 -3492.5 1555.7 -3549.7 1555.7 -4559.3 1612.9 -4616.4 ZM514.4 -3549.7 1555.7 -3549.7 1612.9 -3492.5 1555.7 -3435.3 514.4 -3435.3 457.2 -3492.5 ZM1670.0 -3492.5 1670.0 -2908.3 1612.9 -2813.0 1555.7 -2908.3 1555.7 -3435.3 1612.9 -3492.5 ZM5245.1 -7499.4 5245.1 -6705.6 5187.9 -6635.8 5149.8 -6705.6 5149.8 -7613.6 5187.9 -7556.5 ZM1219.2 -10814.0 2254.3 -10814.0 2254.3 -10756.9 2254.3 -10737.9 1276.3 -10737.9 1219.2 -10756.9 ZM-2063.8 -12966.7 -2063.8 -12065.0 -2235.2 -12052.3 -2368.5 -12128.5 -2368.5 -12966.7 -2235.2 -12966.7 ZM-5899.1 -6464.3 -1289.0 -6464.3 -1238.3 -6324.6 -1295.4 -6165.8 -5899.1 -6165.8 -5975.3 -6324.6 ZM2254.3 -10814.0 4013.2 -10814.0 4013.2 -10756.9 3956.1 -10534.6 2254.3 -10534.6 2254.3 -10756.9 ZM1612.9 -2724.1 539.8 -2724.1 457.2 -2813.0 514.4 -2908.3 1555.7 -2908.3 1612.9 -2813.0 ZM5556.2 -18599.2 5556.2 -15862.3 5480.0 -15862.3 5378.4 -15862.3 5378.4 -18446.8 5480.0 -18523.0 ZM-2368.5 -15862.3 -2368.5 -18599.2 -2235.2 -18523.0 -2216.1 -18446.8 -2216.1 -15862.3 -2235.2 -15862.3 ZM5556.2 -15640.0 5556.2 -10756.9 5480.0 -10756.9 5403.8 -10814.0 5403.8 -15640.0 5480.0 -15640.0 ZM3690.4 1117.6 4180.7 768.3 4178.3 863.6 4158.1 971.5 3739.1 1270.0 3714.8 1193.8 ZM2297.4 1117.6 3690.4 1117.6 3714.8 1193.8 3739.1 1270.0 2249.2 1270.0 2273.3 1193.8 ZM1800.4 768.3 2297.4 1117.6 2273.3 1193.8 2249.2 1270.0 1824.5 971.5 1803.4 863.6 ZM5556.2 -9226.5 5556.2 -7556.5 5480.0 -7556.5 5403.8 -7613.6 5403.8 -9150.3 5480.0 -9226.5 ZM-1181.1 819.1 400.1 819.1 457.2 863.6 457.2 971.5 -1238.3 971.5 -1238.3 863.6 ZM-5899.1 -6165.8 -5899.1 819.1 -5975.3 863.6 -6051.5 971.5 -6051.5 -6324.6 -5975.3 -6324.6 ZM-2368.5 -18599.2 5556.3 -18599.2 5480.0 -18523.0 5378.4 -18446.8 -2216.1 -18446.8 -2235.2 -18523.0 ZM539.8 -2724.1 539.8 -685.8 457.2 -685.8 387.4 -723.9 387.4 -2813.0 457.2 -2813.0 ZM-5899.1 819.1 -1295.4 819.1 -1238.3 863.6 -1238.3 971.5 -6051.5 971.5 -5975.3 863.6 ZM-3568.7 -10725.1 -1238.3 -10725.1 -1238.3 -10668.0 -1289.0 -10572.8 -3625.8 -10572.8 -3625.8 -10668.0 ZM-5899.1 -10572.8 -5899.1 -6464.3 -5975.3 -6324.6 -6051.5 -6324.6 -6051.5 -10668.0 -5975.3 -10668.0 ZM-3625.8 -10572.8 -5899.1 -10572.8 -5975.3 -10668.0 -5899.1 -10725.1 -3683.0 -10725.1 -3625.8 -10668.0 ZM5556.2 -6635.8 5556.2 -4343.4 5480.0 -4343.4 5403.8 -4381.5 5403.8 -6578.6 5480.0 -6635.8 ZM-1155.7 -6324.6 -1155.7 -723.9 -1238.3 -685.8 -1295.4 -685.8 -1295.4 -6165.8 -1238.3 -6324.6 ZM1612.9 -6705.6 3524.3 -6705.6 3562.3 -6635.8 3562.3 -6578.6 1670.0 -6578.6 1612.9 -6635.8 ZM514.4 -4559.3 514.4 -3549.7 457.2 -3492.5 387.3 -3492.5 387.3 -4616.4 457.2 -4616.4 ZM-1155.7 -723.9 387.3 -723.9 457.2 -685.8 400.0 -609.6 -1181.1 -609.6 -1238.3 -685.8 ZM3638.5 -9150.3 3638.5 -6705.6 3562.3 -6635.8 3524.3 -6705.6 3524.3 -9283.7 3562.3 -9226.5 ZM5403.8 -10699.8 4070.3 -10699.8 4013.2 -10756.9 4013.2 -10814.0 5403.8 -10814.0 5480.0 -10756.9 ZM-228.6 -10534.6 -228.6 -9423.4 -247.6 -9423.4 -342.9 -9423.4 -342.9 -10534.6 -247.6 -10756.9 ZM1670.0 -6578.6 1670.0 -4616.4 1612.9 -4616.4 1555.7 -4673.6 1555.7 -6578.6 1612.9 -6635.8 ZM-2063.8 -12065.0 -590.6 -12065.0 -647.7 -12052.3 -704.8 -11976.1 -2235.2 -11976.1 -2235.2 -12052.3 Z"/>
</g>
<symbol viewBox="0 0 80 80" preserveAspectRatio="none" id="file-doors-1-Standard.svg">
<path stroke="#000" stroke-width="2" fill="none" d="M0 40L66.6 1.1"/>
<path stroke="#000" fill="none" d="M66.1 1.1C75 15.5 79.4 30 79.4 40"/>
</symbol>
<symbol viewBox="0 0 360 390" preserveAspectRatio="none" id="file-doors-3-Walkway.svg"/>
<symbol viewBox="0 0 118 25" preserveAspectRatio="none" id="file-windows-1-Standard.svg">
<path stroke="#000" fill="none" d="M0 9.1h118 M0 16.9h118"/>
</symbol>
<symbol viewBox="0 0 179 15" preserveAspectRatio="none" id="file-doors-5-Sliding.svg">
<g stroke="#000" fill="none">
<path stroke-width="2" d="M0 6.2h95m84 2.6H84"/>
</g>
</symbol>
<symbol viewBox="0 0 160 80" preserveAspectRatio="none" id="file-doors-2-Double.svg">
<path stroke="#000" stroke-width="2" fill="none" d="M0 40L66.6 1.1M93.1.9L160 40"/>
<path stroke="#000" fill="none" d="M66.1 1.1C75 15.5 79.4 30 79.4 40c0-13.3 4.4-27.8 13.3-40"/>
</symbol>
<symbol viewBox="0 0 180 83" preserveAspectRatio="none" id="file-doors-7-Bifold.svg">
<path stroke="#000" stroke-width="2" fill="none" d="M1 39l26 -38m1 0l26 38M179 39l-26 -38m-1 0l-26 38"/>
</symbol>
<g id="structural-objects">
<g class="door" transform="translate(-2216.1,  -12527.5) rotate(-270.00) scale(1, 1)" id="door40">
<rect class="door-rect" x="-393.69999999999999" width="787.39999999999998" y="-152.39999999999992" height="304.79999999999984"/>
<use xlink:href="#file-doors-1-Standard.svg" x="-393.69999999999999" width="787.39999999999998" y="-393.69999999999999" height="787.39999999999998"/>
</g>
<g class="door" transform="translate(-3585.9,  -6315.1) rotate(0.00) scale(1, 1)" id="door41">
<rect class="door-rect" x="-2133.5999999999995" width="4267.1999999999989" y="-149.22499999999997" height="298.44999999999993"/>
<use xlink:href="#file-doors-3-Walkway.svg" x="-2133.5999999999995" width="4267.1999999999989" y="-2311.3999999999996" height="4622.7999999999993"/>
</g>
<g class="door" transform="translate(3422.6,  -10674.4) rotate(-0.00) scale(1, -1)" id="door44">
<rect class="door-rect" x="-431.80000000000001" width="863.60000000000002" y="-139.69999999999993" height="279.39999999999986"/>
<use xlink:href="#file-doors-3-Walkway.svg" x="-431.80000000000001" width="863.60000000000002" y="-467.78333333333336" height="935.56666666666672"/>
</g>
<g class="door" transform="translate(1009.9,  -2816.2) rotate(-180.00) scale(-1, 1)" id="door38">
<rect class="door-rect" x="-368.2999999999999" width="736.5999999999998" y="-92.074999999999989" height="184.14999999999998"/>
<use xlink:href="#file-doors-1-Standard.svg" x="-368.2999999999999" width="736.5999999999998" y="-368.2999999999999" height="736.5999999999998"/>
</g>
<g class="door" transform="translate(5467.3,  -16948.4) rotate(-270.00) scale(1, -1)" id="door36">
<rect class="door-rect" x="-444.5" width="889" y="-88.899999999999977" height="177.79999999999995"/>
<use xlink:href="#file-doors-1-Standard.svg" x="-444.5" width="889" y="-444.5" height="889"/>
</g>
<g class="window" transform="translate(-2292.3,  -17077.4) rotate(-90.00) scale(1, 1)" id="window19">
<rect class="window-rect" x="-1143" width="2286" y="-76.199999999999989" height="152.39999999999998"/>
<use xlink:href="#file-windows-1-Standard.svg" x="-1143" width="2286" y="-76.199999999999989" height="152.39999999999998"/>
</g>
<g class="window" transform="translate(5480.0,  -13041.2) rotate(-270.00) scale(1, 1)" id="window12">
<rect class="window-rect" x="-863.59999999999991" width="1727.1999999999998" y="-76.199999999999989" height="152.39999999999998"/>
<use xlink:href="#file-windows-1-Standard.svg" x="-863.59999999999991" width="1727.1999999999998" y="-76.199999999999989" height="152.39999999999998"/>
</g>
<g class="window" transform="translate(3927.2,  1042.4) rotate(-35.46) scale(1, 1)" id="window25">
<rect class="window-rect" x="-228.59999999999997" width="457.19999999999993" y="-76.199999999999989" height="152.39999999999998"/>
<use xlink:href="#file-windows-1-Standard.svg" x="-228.59999999999997" width="457.19999999999993" y="-76.199999999999989" height="152.39999999999998"/>
</g>
<g class="window" transform="translate(3012.5,  1193.8) rotate(0.00) scale(1, 1)" id="window23">
<rect class="window-rect" x="-635" width="1270" y="-76.199999999999989" height="152.39999999999998"/>
<use xlink:href="#file-windows-1-Standard.svg" x="-635" width="1270" y="-76.199999999999989" height="152.39999999999998"/>
</g>
<g class="window" transform="translate(2049.5,  1036.6) rotate(-324.90) scale(1, 1)" id="window24">
<rect class="window-rect" x="-228.60000000000019" width="457.20000000000039" y="-76.199999999999989" height="152.39999999999998"/>
<use xlink:href="#file-windows-1-Standard.svg" x="-228.60000000000019" width="457.20000000000039" y="-76.199999999999989" height="152.39999999999998"/>
</g>
<g class="window" transform="translate(5480.0,  -7921.2) rotate(-270.00) scale(1, 1)" id="window11">
<rect class="window-rect" x="-203.19999999999999" width="406.39999999999998" y="-76.199999999999989" height="152.39999999999998"/>
<use xlink:href="#file-windows-1-Standard.svg" x="-203.19999999999999" width="406.39999999999998" y="-76.199999999999989" height="152.39999999999998"/>
</g>
<g class="door" transform="translate(-397.3,  895.3) rotate(0.00) scale(1, 1)" id="door30">
<rect class="door-rect" x="-457.19999999999999" width="914.39999999999998" y="-76.199999999999989" height="152.39999999999998"/>
<use xlink:href="#file-doors-1-Standard.svg" x="-457.19999999999999" width="914.39999999999998" y="-457.20000000000005" height="914.40000000000009"/>
</g>
<g class="window" transform="translate(-5975.3,  -5401.5) rotate(-270.00) scale(1, 1)" id="window13">
<rect class="window-rect" x="-584.19999999999993" width="1168.3999999999999" y="-76.199999999999989" height="152.39999999999998"/>
<use xlink:href="#file-windows-1-Standard.svg" x="-584.19999999999993" width="1168.3999999999999" y="-76.199999999999989" height="152.39999999999998"/>
</g>
<g class="window" transform="translate(-5975.3,  -1862.6) rotate(-270.00) scale(1, 1)" id="window14">
<rect class="window-rect" x="-584.19999999999993" width="1168.3999999999999" y="-76.199999999999989" height="152.39999999999998"/>
<use xlink:href="#file-windows-1-Standard.svg" x="-584.19999999999993" width="1168.3999999999999" y="-76.199999999999989" height="152.39999999999998"/>
</g>
<g class="window" transform="translate(-302.1,  -18523.0) rotate(0.00) scale(1, 1)" id="window15">
<rect class="window-rect" x="-762" width="1524" y="-76.199999999999989" height="152.39999999999998"/>
<use xlink:href="#file-windows-1-Standard.svg" x="-762" width="1524" y="-76.199999999999989" height="152.39999999999998"/>
</g>
<g class="door" transform="translate(3261.3,  -18523.0) rotate(0.00) scale(-1, -1)" id="door31">
<rect class="door-rect" x="-927.09999999999991" width="1854.1999999999998" y="-76.199999999999989" height="152.39999999999998"/>
<use xlink:href="#file-doors-5-Sliding.svg" x="-927.09999999999991" width="1854.1999999999998" y="-77.623793755912956" height="155.24758751182591"/>
</g>
<g class="door" transform="translate(463.6,  -2095.0) rotate(-270.00) scale(1, 1)" id="door32">
<rect class="door-rect" x="-381" width="762" y="-76.199999999999989" height="152.39999999999998"/>
<use xlink:href="#file-doors-1-Standard.svg" x="-381" width="762" y="-381" height="762"/>
</g>
<g class="window" transform="translate(-3654.2,  895.3) rotate(0.00) scale(1, 1)" id="window16">
<rect class="window-rect" x="-1193.7999999999997" width="2387.5999999999995" y="-76.199999999999989" height="152.39999999999998"/>
<use xlink:href="#file-windows-1-Standard.svg" x="-1193.7999999999997" width="2387.5999999999995" y="-76.199999999999989" height="152.39999999999998"/>
</g>
<g class="door" transform="translate(-1969.3,  -10649.0) rotate(0.00) scale(-1, -1)" id="door34">
<rect class="door-rect" x="-406.39999999999998" width="812.79999999999995" y="-76.199999999999989" height="152.39999999999998"/>
<use xlink:href="#file-doors-1-Standard.svg" x="-406.39999999999998" width="812.79999999999995" y="-406.39999999999992" height="812.79999999999984"/>
</g>
<g class="window" transform="translate(-5975.3,  -8255.6) rotate(-270.00) scale(1, 1)" id="window17">
<rect class="window-rect" x="-393.69999999999999" width="787.39999999999998" y="-76.199999999999989" height="152.39999999999998"/>
<use xlink:href="#file-windows-1-Standard.svg" x="-393.69999999999999" width="787.39999999999998" y="-76.199999999999989" height="152.39999999999998"/>
</g>
<g class="door" transform="translate(-5053.5,  -10648.9) rotate(-180.00) scale(-1, 1)" id="door35">
<rect class="door-rect" x="-419.09999999999997" width="838.19999999999993" y="-76.199999999999989" height="152.39999999999998"/>
<use xlink:href="#file-doors-1-Standard.svg" x="-419.09999999999997" width="838.19999999999993" y="-419.09999999999997" height="838.19999999999993"/>
</g>
<g class="window" transform="translate(5480.0,  -5413.4) rotate(-270.00) scale(1, 1)" id="window18">
<rect class="window-rect" x="-495.29999999999995" width="990.59999999999991" y="-76.199999999999989" height="152.39999999999998"/>
<use xlink:href="#file-windows-1-Standard.svg" x="-495.29999999999995" width="990.59999999999991" y="-76.199999999999989" height="152.39999999999998"/>
</g>
<g class="door" transform="translate(-1225.5,  -3484.6) rotate(-270.00) scale(1, 1)" id="door25">
<rect class="door-rect" x="-1676.3999999999999" width="3352.7999999999997" y="-69.849999999999994" height="139.69999999999999"/>
<use xlink:href="#file-doors-3-Walkway.svg" x="-1676.3999999999999" width="3352.7999999999997" y="-1816.0999999999997" height="3632.1999999999994"/>
</g>
<g class="door" transform="translate(2394.9,  -6642.1) rotate(0.00) scale(-1, 1)" id="door37">
<rect class="door-rect" x="-381" width="762" y="-63.499999999999993" height="126.99999999999999"/>
<use xlink:href="#file-doors-1-Standard.svg" x="-381" width="762" y="-381" height="762"/>
</g>
<g class="door" transform="translate(450.8,  -4008.8) rotate(-270.00) scale(1, -1)" id="door29">
<rect class="door-rect" x="-381" width="762" y="-63.5" height="127"/>
<use xlink:href="#file-doors-1-Standard.svg" x="-381" width="762" y="-381" height="762"/>
</g>
<g class="door" transform="translate(-382.8,  -666.8) rotate(0.00) scale(-1, 1)" id="door27">
<rect class="door-rect" x="-711.19999999999993" width="1422.3999999999999" y="-57.149999999999991" height="114.29999999999998"/>
<use xlink:href="#file-doors-2-Double.svg" x="-711.19999999999993" width="1422.3999999999999" y="-355.53727288763446" height="711.07454577526892"/>
</g>
<g class="door" transform="translate(3581.4,  -7922.0) rotate(-270.00) scale(-1, -1)" id="door28">
<rect class="door-rect" x="-330.19999999999999" width="660.39999999999998" y="-57.149999999999991" height="114.29999999999998"/>
<use xlink:href="#file-doors-1-Standard.svg" x="-330.19999999999999" width="660.39999999999998" y="-330.19999999999999" height="660.39999999999998"/>
</g>
<g class="door" transform="translate(4733.4,  -10756.9) rotate(-180.00) scale(1, -1)" id="door39">
<rect class="door-rect" x="-330.19999999999999" width="660.39999999999998" y="-57.149999999999991" height="114.29999999999998"/>
<use xlink:href="#file-doors-1-Standard.svg" x="-330.19999999999999" width="660.39999999999998" y="-330.19999999999999" height="660.39999999999998"/>
</g>
<g class="door" transform="translate(-285.8,  -10077.4) rotate(-270.00) scale(1, 1)" id="door46">
<rect class="door-rect" x="-342.90000000000003" width="685.80000000000007" y="-57.149999999999999" height="114.3"/>
<use xlink:href="#file-doors-1-Standard.svg" x="-342.90000000000003" width="685.80000000000007" y="-342.90000000000003" height="685.80000000000007"/>
</g>
<g class="door" transform="translate(1612.9,  -5608.8) rotate(-270.00) scale(-1, 1)" id="door33">
<rect class="door-rect" x="-698.5" width="1397" y="-57.149999999999999" height="114.3"/>
<use xlink:href="#file-doors-7-Bifold.svg" x="-698.5" width="1397" y="-322.03073545554338" height="644.06147091108676"/>
</g>
<g class="door" transform="translate(-1569.1,  -12020.5) rotate(0.00) scale(1, 1)" id="door26">
<rect class="door-rect" x="-381" width="762" y="-44.449999999999996" height="88.899999999999991"/>
<use xlink:href="#file-doors-3-Walkway.svg" x="-381" width="762" y="-412.75" height="825.5"/>
</g>
</g>
<g class="premium" id="nonstructural-objects"/>
<g class="ceiling" id="ceilingLines"/>
<g class="ceiling" id="ceiling-objects"/>
<defs>
<mask id="floor1__wall-holes">
<rect fill="white" x="-6051.5" width="11963.4" y="-18600.6" height="19953.1"/>
<path fill="black" d="M-2053.7 -12911.2 -2053.7 -12143.8 -2378.5 -12143.8 -2378.5 -12911.2 -2053.7 -12911.2 ZM-5709.5 -6474.3 -1462.3 -6474.3 -1462.3 -6155.8 -5709.5 -6155.8 -5709.5 -6474.3 ZM3000.8 -10824.1 3844.4 -10824.1 3844.4 -10524.6 3000.8 -10524.6 3000.8 -10824.1 ZM1368.2 -2714.2 651.6 -2714.2 651.6 -2918.3 1368.2 -2918.3 1368.2 -2714.2 ZM5566.2 -17382.9 5566.2 -16513.9 5368.4 -16513.9 5368.4 -17382.9 5566.2 -17382.9 ZM-2378.5 -15944.4 -2378.5 -18210.4 -2206.2 -18210.4 -2206.2 -15944.4 -2378.5 -15944.4 ZM5566.2 -13894.8 5566.2 -12187.6 5393.8 -12187.6 5393.8 -13894.8 5566.2 -13894.8 ZM3699.2 1099.1 4055.3 845.4 4155.3 985.8 3799.2 1239.5 3699.2 1099.1 ZM2387.5 1107.6 3637.5 1107.6 3637.5 1280.0 2387.5 1280.0 2387.5 1107.6 ZM1920.2 840.4 2278.0 1091.7 2178.8 1232.8 1821.1 981.4 1920.2 840.4 ZM5566.2 -8114.4 5566.2 -7728.0 5393.8 -7728.0 5393.8 -8114.4 5566.2 -8114.4 ZM-844.5 809.1 49.9 809.1 49.9 981.5 -844.5 981.5 -844.5 809.1 ZM-5889.1 -5975.7 -5889.1 -4827.3 -6061.5 -4827.3 -6061.5 -5975.7 -5889.1 -5975.7 ZM-5889.1 -2436.8 -5889.1 -1288.4 -6061.5 -1288.4 -6061.5 -2436.8 -5889.1 -2436.8 ZM-1054.1 -18609.2 449.9 -18609.2 449.9 -18436.8 -1054.1 -18436.8 -1054.1 -18609.2 ZM2344.2 -18609.2 4178.4 -18609.2 4178.4 -18436.8 2344.2 -18436.8 2344.2 -18609.2 ZM549.8 -2466.0 549.8 -1724.0 377.4 -1724.0 377.4 -2466.0 549.8 -2466.0 ZM-4838.0 809.1 -2470.4 809.1 -2470.4 981.5 -4838.0 981.5 -4838.0 809.1 ZM-2365.7 -10735.2 -1572.9 -10735.2 -1572.9 -10562.8 -2365.7 -10562.8 -2365.7 -10735.2 ZM-5889.1 -8639.3 -5889.1 -7871.9 -6061.5 -7871.9 -6061.5 -8639.3 -5889.1 -8639.3 ZM-4644.4 -10562.8 -5462.6 -10562.8 -5462.6 -10735.2 -4644.4 -10735.2 -4644.4 -10562.8 ZM5566.2 -5898.7 5566.2 -4928.1 5393.8 -4928.1 5393.8 -5898.7 5566.2 -5898.7 ZM-1145.7 -5151.0 -1145.7 -1818.2 -1305.4 -1818.2 -1305.4 -5151.0 -1145.7 -5151.0 ZM2023.9 -6715.6 2765.9 -6715.6 2765.9 -6568.6 2023.9 -6568.6 2023.9 -6715.6 ZM524.3 -4379.8 524.3 -3637.8 377.3 -3637.8 377.3 -4379.8 524.3 -4379.8 ZM-1084.0 -733.9 318.4 -733.9 318.4 -599.6 -1084.0 -599.6 -1084.0 -733.9 ZM3648.6 -8242.2 3648.6 -7601.8 3514.3 -7601.8 3514.3 -8242.2 3648.6 -8242.2 ZM5053.6 -10689.8 4413.2 -10689.8 4413.2 -10824.0 5053.6 -10824.0 5053.6 -10689.8 ZM-218.6 -10410.3 -218.6 -9744.5 -352.9 -9744.5 -352.9 -10410.3 -218.6 -10410.3 ZM1680.0 -6297.3 1680.0 -4920.3 1545.7 -4920.3 1545.7 -6297.3 1680.0 -6297.3 ZM-1940.1 -12075.0 -1198.1 -12075.0 -1198.1 -11966.1 -1940.1 -11966.1 -1940.1 -12075.0 Z"/>
</mask>
</defs>
<g id="labels"><g><rect x="4041.100000" y="-10644.250000" width="1392.000000" height="1286.000000"  transform="rotate(-90.000000, 4737.100000, -10001.250000)" /><text text-anchor="middle" font-size="288.478554" font-family="Arial" transform="translate(4737.100000 -9903.167292) rotate(0.000000)">PANTRY</text></g><g><rect x="-1908.806250" y="-18213.843750" width="6996.000000" height="2098.000000"  transform="rotate(-0.000000, 1589.193750, -17164.843750)" /><text text-anchor="middle" font-size="288.478554" font-family="Arial" transform="translate(1589.193750 -17385.529844) rotate(-0.000000)">FAMILY</text><text text-anchor="middle" font-size="288.478554" font-family="Arial" transform="translate(1589.193750 -17072.530613) rotate(-0.000000)">24&#39;11&#34; x 8&#39;6&#34;</text><text text-anchor="middle" font-size="288.478554" font-family="Arial" transform="translate(1589.193750 -16759.531381) rotate(-0.000000)">211 sq ft</text></g><g><rect x="527.550000" y="-3429.825000" width="1015.000000" height="516.000000"  transform="rotate(-0.000000, 1035.050000, -3171.825000)" /><text text-anchor="middle" font-size="288.478554" font-family="Arial" transform="translate(1035.050000 -3073.742292) rotate(-0.000000)">CLO</text></g><g><rect x="527.550000" y="-4537.475000" width="1015.000000" height="966.000000"  transform="rotate(-0.000000, 1035.050000, -4054.475000)" /><text text-anchor="middle" font-size="288.478554" font-family="Arial" transform="translate(1035.050000 -3956.392292) rotate(-0.000000)">CLO</text></g><g><rect x="-1151.525000" y="-538.225000" width="1522.000000" height="1286.000000"  transform="rotate(-0.000000, -390.525000, 104.775000)" /><text text-anchor="middle" font-size="288.478554" font-family="Arial" transform="translate(-390.525000 202.857708) rotate(-0.000000)">FOYER</text></g><g><rect x="3598.050000" y="-8640.850000" width="1846.000000" height="1248.000000"  transform="rotate(-90.000000, 4521.050000, -8016.850000)" /><text text-anchor="middle" font-size="288.478554" font-family="Arial" transform="translate(4521.050000 -8237.536094) rotate(0.000000)">BATH</text><text text-anchor="middle" font-size="288.478554" font-family="Arial" transform="translate(4521.050000 -7924.536863) rotate(0.000000)">5&#39;9&#34; x 8&#39;</text><text text-anchor="middle" font-size="288.478554" font-family="Arial" transform="translate(4521.050000 -7611.537631) rotate(0.000000)">44 sq ft</text></g><g><rect x="1932.530469" y="-6335.119531" width="2930.000000" height="2968.000000"  transform="rotate(-0.000000, 3397.530469, -4851.119531)" /><text text-anchor="middle" font-size="288.478554" font-family="Arial" transform="translate(3397.530469 -5071.805625) rotate(-0.000000)">BEDROOM</text><text text-anchor="middle" font-size="288.478554" font-family="Arial" transform="translate(3397.530469 -4758.806394) rotate(-0.000000)">12&#39;3&#34; x 12&#39;</text><text text-anchor="middle" font-size="288.478554" font-family="Arial" transform="translate(3397.530469 -4445.807163) rotate(-0.000000)">142 sq ft</text></g><g><rect x="130.550000" y="-6137.100000" width="1809.000000" height="1022.000000"  transform="rotate(-90.000000, 1035.050000, -5626.100000)" /><text text-anchor="middle" font-size="288.478554" font-family="Arial" transform="translate(1035.050000 -5528.017292) rotate(0.000000)">CLO</text></g><g><rect x="-3535.674384" y="-11957.031207" width="2800.000000" height="1214.000000"  transform="rotate(-0.000000, -2135.674384, -11350.031207)" /><text text-anchor="middle" font-size="288.478554" font-family="Arial" transform="translate(-2135.674384 -11251.948499) rotate(-0.000000)">SERVERY</text></g><g><rect x="-5646.600000" y="-10285.525000" width="4105.000000" height="3534.000000"  transform="rotate(-0.000000, -3594.100000, -8518.525000)" /><text text-anchor="middle" font-size="288.478554" font-family="Arial" transform="translate(-3594.100000 -8739.211094) rotate(-0.000000)">DINING</text><text text-anchor="middle" font-size="288.478554" font-family="Arial" transform="translate(-3594.100000 -8426.211863) rotate(-0.000000)">15&#39;1&#34; x 13&#39;6&#34;</text><text text-anchor="middle" font-size="288.478554" font-family="Arial" transform="translate(-3594.100000 -8113.212631) rotate(-0.000000)">204 sq ft</text></g><g><rect x="-5869.075000" y="-11957.625000" width="2156.000000" height="1214.000000"  transform="rotate(-0.000000, -4791.075000, -11350.625000)" /><text text-anchor="middle" font-size="288.478554" font-family="Arial" transform="translate(-4791.075000 -11252.542292) rotate(-0.000000)">STORAGE</text></g><g><rect x="591.675000" y="-9355.475000" width="2930.000000" height="2354.000000"  transform="rotate(-0.000000, 2056.675000, -8178.475000)" /><text text-anchor="middle" font-size="288.478554" font-family="Arial" transform="translate(2056.675000 -8399.161094) rotate(-0.000000)">DEN</text><text text-anchor="middle" font-size="288.478554" font-family="Arial" transform="translate(2056.675000 -8086.161863) rotate(-0.000000)">13&#39;9&#34; x 13&#39;3&#34;</text><text text-anchor="middle" font-size="288.478554" font-family="Arial" transform="translate(2056.675000 -7773.162631) rotate(-0.000000)">143 sq ft</text></g><g><rect x="-5500.708594" y="-2757.986719" width="3914.000000" height="2642.000000"  transform="rotate(-0.000000, -3543.708594, -1436.986719)" /><text text-anchor="middle" font-size="288.478554" font-family="Arial" transform="translate(-3543.708594 -1657.672813) rotate(-0.000000)">LIVING</text><text text-anchor="middle" font-size="288.478554" font-family="Arial" transform="translate(-3543.708594 -1344.673581) rotate(-0.000000)">15&#39;1&#34; x 22&#39;11&#34;</text><text text-anchor="middle" font-size="288.478554" font-family="Arial" transform="translate(-3543.708594 -1031.674350) rotate(-0.000000)">346 sq ft</text></g><g><rect x="-1562.540625" y="-14575.440625" width="6600.000000" height="2494.000000"  transform="rotate(-0.000000, 1737.459375, -13328.440625)" /><text text-anchor="middle" font-size="288.478554" font-family="Arial" transform="translate(1737.459375 -13549.126719) rotate(-0.000000)">KITCHEN</text><text text-anchor="middle" font-size="288.478554" font-family="Arial" transform="translate(1737.459375 -13236.127488) rotate(-0.000000)">25&#39; x 16&#39;7&#34;</text><text text-anchor="middle" font-size="288.478554" font-family="Arial" transform="translate(1737.459375 -12923.128256) rotate(-0.000000)">390 sq ft</text></g><g><rect x="-1407.224449" y="-10254.907820" width="1296.000000" height="814.000000"  transform="rotate(-90.000000, -759.224449, -9847.907820)" /><text text-anchor="middle" font-size="288.478554" font-family="Arial" transform="translate(-759.224449 -9749.825112) rotate(0.000000)">STRG</text></g><g><rect x="-196.275000" y="-10520.025000" width="1326.000000" height="1082.000000"  transform="rotate(-0.000000, 466.725000, -9979.025000)" /><text text-anchor="middle" font-size="268.983297" font-family="Arial" transform="translate(466.725000 -9887.570679) rotate(-0.000000)">LAUNDRY</text></g><g><rect x="-1119.700000" y="-4685.150000" width="1471.000000" height="1286.000000"  transform="rotate(-0.000000, -384.200000, -4042.150000)" /><text text-anchor="middle" font-size="288.478554" font-family="Arial" transform="translate(-384.200000 -3944.067292) rotate(-0.000000)">HALL</text></g><g><rect x="773.750000" y="-2378.150000" width="4396.000000" height="2800.000000"  transform="rotate(-0.000000, 2971.750000, -978.150000)" /><text text-anchor="middle" font-size="288.478554" font-family="Arial" transform="translate(2971.750000 -1198.836094) rotate(-0.000000)">BEDROOM</text><text text-anchor="middle" font-size="288.478554" font-family="Arial" transform="translate(2971.750000 -885.836863) rotate(-0.000000)">15&#39;11&#34; x 11&#39;5&#34;</text><text text-anchor="middle" font-size="288.478554" font-family="Arial" transform="translate(2971.750000 -572.837631) rotate(-0.000000)">182 sq ft</text></g><g><text text-anchor="middle" alignment-baseline="middle" font-size="288.478554" font-family="Arial" transform="translate(-5695.591975 -3655.504649) rotate(-0.000000)">F/P</text></g><g><text text-anchor="middle" alignment-baseline="middle" font-size="288.478554" font-family="Arial" transform="translate(-743.001161 -7028.283613) rotate(-0.000000)">UP</text></g></g></svg>
