<svg width="24" height="24" fill="none" xmlns="http://www.w3.org/2000/svg"><path d="M11.253 22.517l-9.192-9.193a.5.5 0 010-.707L13.067 1.611a.5.5 0 01.37-.147l8.887.307a.5.5 0 01.482.482l.307 8.886a.5.5 0 01-.146.371L11.96 22.517a.5.5 0 01-.707 0z" stroke="#F2F2F2"/><path d="M16.56 23a6 6 0 11-.12-12 6 6 0 01.12 12z" fill="#E5E5E6"/><path d="M14.249 14.999v-.809c.762-.074 1.293-.197 1.594-.369.3-.176.525-.588.674-1.236h.832v8.355h-1.125V15h-1.975z" fill="#060D13"/><circle cx="16.556" cy="8.021" r="2" transform="rotate(45 16.556 8.02)" stroke="#F2F2F2"/></svg>