<svg width="24" height="24" fill="none" xmlns="http://www.w3.org/2000/svg"><path d="M11.253 22.517l-9.192-9.193a.5.5 0 010-.707L13.067 1.611a.5.5 0 01.37-.147l8.887.307a.5.5 0 01.482.482l.307 8.886a.5.5 0 01-.146.371L11.96 22.517a.5.5 0 01-.707 0z" stroke="#F2F2F2"/><circle cx="16.556" cy="8.021" r="2" transform="rotate(45 16.556 8.02)" stroke="#F2F2F2"/><path d="M12.3 21.285a6 6 0 118.4-8.57 6 6 0 01-8.4 8.57z" fill="#495057"/><path d="M14.699 15.352v-.647c.61-.06 1.034-.158 1.275-.295.24-.14.42-.47.539-.99h.665v6.685h-.9v-4.753h-1.58z" fill="#F2F2F2"/></svg>