<svg width="24" height="24" fill="none" xmlns="http://www.w3.org/2000/svg"><path d="M11.253 22.517l-9.192-9.193a.5.5 0 010-.707L13.067 1.611a.5.5 0 01.37-.147l8.887.307a.5.5 0 01.482.482l.307 8.886a.5.5 0 01-.146.371L11.96 22.517a.5.5 0 01-.707 0z" stroke="#F2F2F2"/><circle cx="16.556" cy="8.021" r="2" transform="rotate(45 16.556 8.02)" stroke="#F2F2F2"/><path d="M16.56 23a6 6 0 11-.12-12 6 6 0 01.12 12z" fill="#E5E5E6"/><path d="M13.475 20.94c.04-.722.188-1.351.446-1.886.261-.536.77-1.022 1.523-1.46l1.125-.65c.504-.293.858-.543 1.06-.75.321-.324.481-.695.481-1.113 0-.488-.146-.875-.44-1.16-.292-.29-.683-.434-1.171-.434-.723 0-1.223.274-1.5.82-.149.293-.23.7-.246 1.22H13.68c.011-.731.146-1.327.404-1.788.457-.812 1.263-1.219 2.42-1.219.96 0 1.662.26 2.103.78.446.52.668 1.097.668 1.734 0 .672-.236 1.246-.709 1.723-.273.277-.763.613-1.47 1.008l-.803.445a5.13 5.13 0 00-.902.603c-.391.34-.637.717-.739 1.131h4.582v.996h-5.76z" fill="#060D13"/></svg>