<svg width="24" height="24" fill="none" xmlns="http://www.w3.org/2000/svg"><path d="M11.253 22.517l-9.192-9.193a.5.5 0 010-.707L13.067 1.611a.5.5 0 01.37-.147l8.887.307a.5.5 0 01.482.482l.307 8.886a.5.5 0 01-.146.371L11.96 22.517a.5.5 0 01-.707 0z" stroke="#F2F2F2"/><circle cx="16.556" cy="8.021" r="2" transform="rotate(45 16.556 8.02)" stroke="#F2F2F2"/><path d="M16.56 23a6 6 0 11-.12-12 6 6 0 01.12 12z" fill="#495057"/><path d="M16.418 21.169c-.993 0-1.713-.272-2.162-.815-.446-.546-.668-1.21-.668-1.992h1.101c.047.543.149.938.305 1.184.273.441.767.662 1.482.662.555 0 1-.149 1.336-.445.336-.297.504-.68.504-1.149 0-.578-.178-.982-.533-1.213-.352-.23-.842-.346-1.47-.346-.071 0-.143.003-.218.006-.07 0-.142.002-.216.006v-.931a4.592 4.592 0 00.516.03c.394-.001.718-.064.972-.189.445-.218.668-.609.668-1.171 0-.418-.149-.74-.445-.967a1.662 1.662 0 00-1.038-.34c-.703 0-1.19.234-1.459.703-.148.258-.232.625-.252 1.102H13.8c0-.625.125-1.157.375-1.594.43-.781 1.185-1.172 2.267-1.172.856 0 1.518.191 1.986.574.47.38.704.93.704 1.652 0 .516-.14.934-.416 1.254-.172.2-.395.356-.668.47.44.12.785.355 1.03.702.25.344.376.766.376 1.266 0 .8-.264 1.453-.791 1.957-.528.504-1.276.756-2.244.756z" fill="#F2F2F2"/></svg>